<svg width="512" height="512" viewBox="0 0 512 512" fill="none" xmlns="http://www.w3.org/2000/svg">
<g clip-path="url(#clip0_5175_260)">
<path d="M39.1128 208.897C60.6562 131.952 148.668 99.295 210.095 145.979L211.542 147.097L211.542 147.098C247.561 175.44 256.349 215.365 254.596 259.646L254.501 262.047H56.6108C55.7695 299.694 68.8987 329.559 90.5522 347.291C112.63 365.371 143.951 371.156 179.408 359.256C203.796 351.069 218.267 331.984 225.586 307.702L225.588 307.694C227.561 301.224 230.381 296.77 234.865 294.724C239.251 292.722 244.521 293.371 250.483 295.178L252.639 295.831L252.212 298.043C246.129 329.575 232.246 356.3 203.045 373.018L203.044 373.019C159.552 397.882 97.5144 389.92 64.7095 355.222V355.221C45.3389 334.828 37.1988 309.521 33.6157 282.541L33.6138 282.531L33.6128 282.521C33.0956 278.384 32.0513 274.46 31.1606 270.044L31.1079 269.787L31.1108 269.524C31.1817 262.344 31.2173 255.164 31.2173 247.984V247.737L31.2651 247.495C33.7727 234.922 35.5337 221.569 39.1128 208.897ZM449.956 132.287C455.911 129.909 462.65 129.96 470.681 132.297L474.161 133.31L471.979 136.202C460.35 151.624 448.958 166.814 437.498 181.894L437.497 181.895C422.062 202.179 406.837 222.808 390.777 242.741L390.778 242.742C388.108 246.059 387.321 248.388 387.429 250.391C387.542 252.485 388.653 254.806 391.138 258.067L391.139 258.069C420.798 297.058 450.106 336.444 480.282 376.654L482.533 379.653L478.899 380.578C470.525 382.708 463.412 382.841 457.116 380.438C450.817 378.033 445.707 373.23 441.053 366.241C420.947 336.117 398.782 307.415 377.272 278.013L377.269 278.01C375.055 274.972 372.775 271.985 370.09 268.46C345.317 301.806 320.717 333.545 297.559 366.573L297.558 366.574C293.187 372.804 288.499 377.584 282.606 380.15C276.656 382.741 269.838 382.921 261.52 380.675L257.97 379.716L260.167 376.768L354.518 250.136L266.786 135.9L264.326 132.697L268.291 131.924C276.069 130.408 283.013 129.955 289.32 131.851C295.717 133.773 301.131 138.008 306.052 145.203L307.994 148.026C327.508 176.283 348.806 203.305 370.217 231.874C392.436 202.478 414.219 174.547 434.853 145.521C439.264 139.264 444.041 134.649 449.956 132.287ZM148.261 147.412C122.315 147.205 100.125 156.722 84.1255 173.366C68.5954 189.522 58.7744 212.528 57.1626 240.199H230.831C228.694 185.598 194.347 147.749 148.263 147.412H148.261Z" fill="black" stroke="white" stroke-width="5"/>
</g>
<defs>
<clipPath id="clip0_5175_260">
<rect width="454" height="454" fill="white" transform="translate(29 29)"/>
</clipPath>
</defs>
</svg>
