<svg width="512" height="512" viewBox="0 0 512 512" fill="none" xmlns="http://www.w3.org/2000/svg">
<path d="M32 125.003C32 73.6401 73.637 32 124.999 32C211.71 32 298.742 32 386.997 32C438.36 32 480 73.637 480 124.999C480 211.71 480 298.742 480 386.997C480 438.36 438.363 480 387.001 480C300.29 480 213.258 480 125.003 480C73.6401 480 32 438.363 32 387.001C32 300.29 32 213.258 32 125.003Z" fill="#010101"/>
<path d="M353.804 55.099C358.733 57.9734 363.201 61.6309 366.809 66.052C376.739 78.2214 381.873 91.9569 382.403 108.245C381.629 139.196 362.414 156.541 341.826 177.049C339.864 179.012 337.903 180.977 335.942 182.941C331.866 187.023 327.783 191.099 323.696 195.17C318.45 200.398 313.219 205.639 307.992 210.886C303.961 214.928 299.923 218.963 295.882 222.995C293.948 224.927 292.017 226.861 290.088 228.798C287.408 231.486 284.717 234.164 282.024 236.839C281.227 237.643 280.43 238.446 279.609 239.274C275.787 243.049 274.614 244.207 273.058 244.562C271.555 244.905 270.15 245.674 269.615 247.119C269.537 247.328 269.439 247.537 269.323 247.727C266.86 251.747 263.845 254.126 260.136 257.058C256.919 259.817 254.421 263.059 251.783 266.361C249.345 269.129 246.735 271.379 243.901 273.739C238.423 278.465 233.416 283.47 228.453 288.734C227.026 290.232 225.599 291.73 224.129 293.273C221.92 295.602 219.712 297.931 217.543 300.297C212.531 305.746 209.583 308.949 207.412 310.918C202.835 315.065 195.889 314.677 190.004 312.802C183.57 310.753 177.61 307.268 173.155 302.249C172.521 301.535 172.201 300.614 172.201 299.659C172.201 298.541 172.646 297.453 173.449 296.675C174.654 295.506 175.209 295.048 177.713 292.98C185.549 286.311 192.782 279.145 200.039 271.856C201.474 270.422 202.909 268.987 204.387 267.509C208.286 263.61 212.18 259.707 216.073 255.803C220.166 251.7 224.263 247.602 228.36 243.503C236.109 235.749 243.855 227.99 251.598 220.23C260.388 211.422 269.183 202.619 277.978 193.815C293.017 178.762 308.053 163.706 323.085 148.646C324.944 146.782 324.944 146.782 326.842 144.881C328.55 143.168 328.55 143.168 330.292 141.421C332.153 139.559 334.019 137.703 335.894 135.855C344.688 127.186 348.248 121.018 348.763 108.648C348.522 101.443 347.418 95.952 344.132 90.6978C341.651 86.7324 338.052 83.5457 333.955 81.2893C327.037 77.4797 320.33 76.6009 312.283 76.7994C308.078 76.9032 303.862 77.6469 300.135 79.5966C292.455 83.6141 285.643 90.1823 280.805 97.1436C280.404 97.72 279.761 98.0721 279.059 98.0721C277.899 98.0721 276.95 99.0121 276.95 100.172C276.95 100.248 276.95 100.324 276.95 100.4C276.95 100.976 276.735 101.533 276.349 101.961C270.833 108.07 269.987 108.905 266.049 110.29C264.864 110.706 264.058 111.799 264.058 113.054C264.058 113.776 263.787 114.487 263.303 115.023C257.891 121.015 257.048 121.821 253.083 123.208C251.943 123.607 251.165 124.659 251.165 125.866C251.165 126.633 250.852 127.381 250.295 127.908C249.018 129.116 248.627 129.424 246.23 131.31C241.738 135.014 237.907 138.852 234.144 143.295C230.825 147.208 227.584 150.677 223.568 153.871C218.618 157.96 214.92 162.392 210.878 167.367C208.213 170.074 205.523 172.756 202.82 175.425C200.889 177.354 198.958 179.284 197.029 181.216C192.832 185.413 188.636 189.609 184.439 193.806C183.445 194.801 182.451 195.797 181.427 196.822C179.033 199.212 176.626 201.587 174.216 203.96C156.659 221.852 146.478 242.902 145.712 268.087C146.137 286.308 152.67 302.018 165.264 315.28C182.66 331.154 205.201 328.735 227.284 328.741C234.175 328.748 241.067 328.798 247.958 328.839C256.668 328.888 265.376 328.925 274.086 328.922C281.181 328.921 288.274 328.959 295.369 329.022C298.045 329.038 300.72 329.041 303.396 329.029C329.377 328.92 349.434 334.027 368.743 352.489C381.207 365.532 385.491 381.308 385.255 398.965C384.145 416.567 378.206 432.389 365.243 444.711C361.7 447.553 358.103 450.12 354.302 452.605C353.338 453.265 352.374 453.926 351.381 454.606C339.475 462.158 326.137 462.754 312.431 462.691C310.125 462.699 310.125 462.699 307.772 462.708C302.733 462.722 297.694 462.713 292.656 462.702C289.13 462.704 285.605 462.707 282.08 462.711C274.71 462.716 267.34 462.709 259.969 462.694C250.543 462.675 241.117 462.686 231.69 462.705C224.417 462.717 217.143 462.713 209.87 462.705C206.395 462.703 202.919 462.705 199.444 462.713C194.582 462.721 189.72 462.709 184.857 462.691C182.723 462.7 182.723 462.7 180.546 462.71C163.139 462.592 146.257 457.594 132.871 446.033C125.666 438.344 120.778 430.345 117.41 420.374C116.547 417.829 116.547 417.829 115.666 415.231C113.931 408.033 113.632 401.46 113.683 394.087C113.693 392.728 113.702 391.369 113.711 389.97C114.035 373.358 119.217 358.532 128.375 345.374C133.014 338.707 134.693 330.065 129.799 323.583C113.933 301.568 111.149 274.199 114.626 247.836C116.788 235.733 121.358 224.603 126.676 213.597C127.157 212.596 127.638 211.594 128.134 210.562C139.201 189.069 158.461 172.523 175.311 155.658C178.145 152.814 180.978 149.97 183.811 147.126C189.73 141.188 195.656 135.256 201.586 129.328C209.159 121.755 216.71 114.16 224.255 106.56C230.092 100.687 235.944 94.8284 241.8 88.9743C244.589 86.1808 247.374 83.3822 250.153 80.5782C254.046 76.653 257.96 72.749 261.879 68.8493C263.006 67.7039 264.133 66.5585 265.295 65.3784C292.232 38.7755 323.486 37.4203 353.804 55.099Z" fill="#FAFAFA"/>
<path d="M160.404 354.951C161.67 353.525 163.674 353.055 165.491 353.635C167.516 354.264 167.516 354.264 169.583 354.906C170.891 355.318 172.2 355.729 173.548 356.153C176.072 356.832 176.072 356.832 178.647 357.525C179.627 357.797 180.606 358.069 181.615 358.349C194.509 361.437 207.37 361.201 220.545 361.19C224.869 361.189 229.192 361.21 233.516 361.237C245.797 361.311 258.079 361.351 270.361 361.362C277.903 361.37 285.445 361.409 292.986 361.467C295.845 361.483 298.704 361.487 301.563 361.478C305.566 361.467 309.566 361.495 313.568 361.531C314.732 361.518 315.896 361.505 317.095 361.491C325.113 361.62 331.626 363.827 337.8 367.768C342.37 370.686 346.362 374.562 348.989 379.305C352.631 385.878 353.21 392.154 353.175 401.193C352.371 408.95 349.393 414.801 344.778 420.138C341.682 423.719 337.902 426.722 333.547 428.576C320.04 434.324 303.846 432.577 289.483 432.511C286.144 432.515 282.806 432.521 279.467 432.529C272.493 432.539 265.519 432.525 258.544 432.495C249.632 432.458 240.722 432.479 231.81 432.518C224.923 432.541 218.037 432.534 211.151 432.517C207.866 432.513 204.581 432.518 201.296 432.533C196.696 432.55 192.098 432.524 187.498 432.489C185.489 432.508 185.489 432.508 183.44 432.528C175.642 432.417 168.758 430.953 162.474 427.646C155.642 424.05 150.56 417.752 147.726 410.571C144.561 402.55 143.539 394.168 144.806 384.921C147.668 374.409 153.005 363.283 160.404 354.951Z" fill="#040404"/>
<path d="M323.944 192.89C329.2 187.635 333.227 189.971 328.115 195.367C323.461 199.809 318.651 204.023 313.794 208.24C310.719 210.941 307.991 213.534 305.489 216.425C302.354 220.047 299.382 223.847 295.683 226.892C291.689 230.236 287.903 233.665 284.265 237.377C283.746 237.908 282.953 238.052 282.289 237.72C281.252 237.202 281.019 235.816 281.838 234.997C295.789 221.045 309.75 207.085 323.944 192.89Z" fill="#161616"/>
<path d="M216.456 255.257C216.974 254.739 217.756 254.605 218.412 254.933C219.455 255.454 219.687 256.851 218.859 257.672C218.562 257.966 218.263 258.262 217.961 258.561C214.085 262.403 210.215 266.252 206.345 270.101C205.002 271.43 203.659 272.76 202.276 274.13C200.336 276.062 200.336 276.062 198.357 278.033C197.167 279.214 195.977 280.396 194.751 281.613C192.154 284.358 189.856 287.153 187.643 290.16C187.08 290.925 186.104 291.253 185.204 290.953C183.679 290.445 183.208 288.504 184.345 287.368C194.94 276.772 205.556 266.157 216.456 255.257Z" fill="#F1F1F1"/>
<path d="M327.517 180.65C328.067 179.55 329.41 179.093 330.51 179.643C330.795 179.786 331.081 179.929 331.367 180.072C333.204 180.99 333.704 183.382 332.389 184.96C331.789 185.68 331.188 186.402 330.584 187.126C328.589 189.521 324.983 189.747 322.798 187.525C322.224 186.94 321.654 186.351 321.09 185.758C320.684 185.332 320.46 184.775 320.46 184.187C320.46 182.912 321.494 181.87 322.768 181.87C323.683 181.87 324.602 181.87 325.53 181.87C326.374 181.87 327.14 181.404 327.517 180.65Z" fill="#F2F2F2"/>
<path d="M212.188 163.916C213.185 163.173 214.595 163.52 215.15 164.631C215.492 165.314 215.43 166.144 214.967 166.751C210.694 172.359 206 176.818 200.541 181.335C198.315 183.154 195.083 181.554 196.754 179.214C197.726 177.852 199.068 176.522 200.806 174.619C201.928 173.372 203.049 172.126 204.205 170.842C206.771 168.257 209.345 166.037 212.188 163.916Z" fill="#131313"/>
<path d="M259.223 115.799C259.818 115.204 260.811 115.628 260.717 116.463C260.193 121.154 257.929 123.122 254.388 127.382C253.192 128.834 251.995 130.286 250.763 131.782C250.196 132.456 249.86 132.856 249.565 133.207C248.641 134.306 247.056 134.546 245.862 133.75C244.423 132.791 244.135 130.738 245.357 129.514C245.854 129.016 246.381 128.522 247.277 127.694C247.704 127.299 248.262 127.08 248.844 127.08C250.116 127.08 251.165 126.06 251.165 124.788C251.165 124.197 251.392 123.617 251.801 123.191C254.218 120.671 256.693 118.205 259.223 115.799Z" fill="#2E2E2E"/>
<path d="M283.999 50.4153C284.618 49.9825 285.414 49.9301 286.089 50.2676C287.221 50.8335 287.616 52.2732 286.897 53.3143C284.136 57.3108 282.163 59.2754 276.69 60.6688C276.596 60.6927 276.435 60.7126 276.338 60.7192C274.834 60.8218 274.064 59.0126 275.139 57.9547C277.92 55.2157 280.703 52.7215 283.999 50.4153Z" fill="#DDDDDD"/>
<path d="M173.741 201.544C174.541 200.616 176.022 200.792 176.57 201.887C176.853 202.454 176.807 203.143 176.439 203.659C175.103 205.534 173.755 207.402 172.403 209.266C171.543 210.462 170.683 211.659 169.797 212.892C169.154 213.637 168.512 214.383 167.857 215.143C167.546 215.504 167.1 215.712 166.623 215.712C165.45 215.712 164.655 214.516 165.185 213.47C167.455 208.993 170.462 205.349 173.741 201.544Z" fill="#252525"/>
<path d="M314.015 196.584C314.015 195.665 314.878 194.979 315.77 195.202C316.088 195.281 316.406 195.36 316.724 195.44C318.368 195.851 318.936 197.899 317.737 199.098C316.871 199.964 316.001 200.833 315.126 201.708C313.928 202.907 311.88 202.34 311.469 200.695C311.39 200.378 311.31 200.06 311.23 199.742C311.008 198.85 311.67 197.986 312.589 197.986C313.369 197.986 314.015 197.364 314.015 196.584Z" fill="#EEEEEE"/>
<path d="M209.266 117.62C209.266 116.701 210.13 116.015 211.022 116.238C211.283 116.303 211.545 116.368 211.806 116.434C213.429 116.84 213.904 118.917 212.619 119.988C211.421 120.986 210.588 121.681 209.417 122.657C208.078 123.773 206.043 122.821 206.043 121.078C206.043 120.93 206.043 120.782 206.043 120.633C206.043 119.743 206.765 119.022 207.655 119.022C207.721 119.022 207.787 119.022 207.853 119.022C208.634 119.022 209.266 118.401 209.266 117.62Z" fill="#1A1A1A"/>
</svg>
