<svg width="512" height="512" viewBox="0 0 512 512" fill="none" xmlns="http://www.w3.org/2000/svg">
<path d="M251.899 40.1914C255.728 38.1958 260.028 37.2831 264.336 37.5459H264.367L264.434 37.5498C268.78 37.7821 272.98 39.205 276.573 41.6631C280.161 44.1177 283.007 47.5103 284.8 51.4707L432.303 371.589L432.304 371.591C433.739 374.711 434.488 378.104 434.5 381.539C434.512 384.974 433.786 388.372 432.372 391.502C430.958 394.632 428.89 397.424 426.305 399.686C423.72 401.947 420.679 403.626 417.39 404.611L417.391 404.612L187.931 473.485C182.917 474.99 177.55 474.817 172.644 472.993C167.737 471.169 163.56 467.794 160.745 463.38L160.741 463.374L81.2266 337.871V337.87C78.8237 334.074 77.5329 329.68 77.501 325.187C77.4691 320.694 78.6965 316.282 81.0449 312.452L242.55 48.959C244.806 45.236 248.039 42.2031 251.899 40.1914ZM270.59 123.367C269.411 123.475 268.299 123.964 267.424 124.761C266.548 125.558 265.956 126.62 265.738 127.784L265.732 127.815L208.951 410.682C208.763 411.622 208.822 412.595 209.12 413.506C209.419 414.418 209.948 415.237 210.656 415.884C211.365 416.53 212.229 416.983 213.163 417.197C214.097 417.412 215.071 417.38 215.99 417.107L374.543 369.777H374.546C375.3 369.553 375.998 369.171 376.594 368.657C377.19 368.143 377.67 367.508 378.003 366.795C378.336 366.082 378.513 365.306 378.523 364.519C378.534 363.731 378.378 362.951 378.065 362.229L378.064 362.227L276.311 126.705L276.295 126.67C275.842 125.577 275.046 124.662 274.025 124.064C273.005 123.467 271.817 123.219 270.643 123.359L270.557 122.644L270.59 123.367Z" fill="#2D3748" stroke="white" stroke-width="5"/>
</svg>
