<?xml version="1.0" encoding="UTF-8"?>
<svg version="1.1" xmlns="http://www.w3.org/2000/svg" width="128" height="128">
<path d="M0 0 C2.77260299 1.93798263 2.77260299 1.93798263 5 3 C17.94655393 16.57809315 25.70452488 32.73378524 26.0703125 51.6328125 C25.44414092 69.27611749 18.63270878 83.49546878 6.50390625 96.22265625 C4.78468592 97.86642269 4.78468592 97.86642269 5 100 C4.46375 100.0825 3.9275 100.165 3.375 100.25 C0.12659309 101.27581271 -2.28751859 102.96563894 -5 105 C-5 105.66 -5 106.32 -5 107 C-5.721875 107.12503906 -6.44375 107.25007813 -7.1875 107.37890625 C-9.959949 107.9911554 -12.37117872 108.87555238 -15 109.9375 C-30.4884244 115.61106723 -45.48319635 114.80621554 -60.7578125 109.15625 C-63.52566572 108.16916018 -66.10905645 107.48000572 -69 107 C-69 106.34 -69 105.68 -69 105 C-70.72094171 103.6701568 -70.72094171 103.6701568 -72.875 102.4375 C-73.59429687 102.00308594 -74.31359375 101.56867188 -75.0546875 101.12109375 C-76.34834796 100.37555047 -77.66451742 99.66774129 -79 99 C-92.55907121 84.77951068 -100.36416564 67.87915954 -100 48 C-98.81376263 30.01913883 -90.55215605 16.28787232 -79 3 C-77.0625 1.875 -77.0625 1.875 -75 1 C-71.78170896 -0.92293518 -71.78170896 -0.92293518 -69 -3 C-69 -3.66 -69 -4.32 -69 -5 C-67.98679687 -5.17015625 -67.98679687 -5.17015625 -66.953125 -5.34375 C-64.10946416 -5.97567463 -61.42887603 -6.84370354 -58.68530273 -7.81591797 C-39.43710882 -14.61968224 -16.39215393 -13.19368487 0 0 Z " fill="#4580FE" transform="translate(101,13)"/>
<path d="M0 0 C0 0.66 0 1.32 0 2 C-0.94875 2.0825 -1.8975 2.165 -2.875 2.25 C-4.421875 2.62125 -4.421875 2.62125 -6 3 C-7.14209817 4.78228936 -7.14209817 4.78228936 -8 7 C-9.1446875 8.11375 -9.1446875 8.11375 -10.3125 9.25 C-20.57007085 19.74611901 -23.52828744 34.67376617 -27.26416016 48.3894043 C-29.16737623 55.28197928 -31.27331182 62.04158429 -33.75 68.75 C-34.03149902 69.51715332 -34.31299805 70.28430664 -34.60302734 71.07470703 C-36.80015517 76.86951703 -38.87297165 81.56397987 -44.0625 85.25 C-44.75472656 85.75015625 -45.44695313 86.2503125 -46.16015625 86.765625 C-49.92247657 89.28981443 -52.44781789 89.36711146 -57 89 C-63.81717896 86.66413235 -67.06096336 82.90855497 -71 77 C-71 76.01 -71 75.02 -71 74 C-71.66 74 -72.32 74 -73 74 C-75.22859628 52.22601198 -70.28621636 35.48610521 -56.67358398 18.328125 C-54.27165945 15.38056833 -52.50033047 13.48498868 -49 12 C-45.78170896 10.07706482 -45.78170896 10.07706482 -43 8 C-43 7.34 -43 6.68 -43 6 C-41.98679687 5.82984375 -41.98679687 5.82984375 -40.953125 5.65625 C-38.10946416 5.02432537 -35.42887603 4.15629646 -32.68530273 3.18408203 C-21.16840731 -0.88685792 -12.17109418 -1.1253501 0 0 Z " fill="#3BFBC6" transform="translate(75,2)"/>
<path d="M0 0 C9.7660225 6.82538181 13.737031 18.74664872 16 30 C18.81191268 48.75297649 14.20535036 64.81438005 3.28125 80.02734375 C-3.75833973 89.20050776 -3.75833973 89.20050776 -8 91 C-11.21829104 92.92293518 -11.21829104 92.92293518 -14 95 C-14 95.66 -14 96.32 -14 97 C-14.71027344 97.12246094 -15.42054687 97.24492188 -16.15234375 97.37109375 C-20.06023697 98.23415384 -23.65671814 99.70948377 -27.37890625 101.16015625 C-30 102 -30 102 -34 102 C-33 99 -33 99 -31.04272461 97.58544922 C-26.73370089 94.24102469 -26.26695656 88.10400818 -25.61279297 82.94824219 C-25.32703264 79.59170852 -25.11951262 76.23872422 -24.9375 72.875 C-24.77822642 70.38015183 -24.61805482 67.88536084 -24.45703125 65.390625 C-24.38049316 64.14861328 -24.30395508 62.90660156 -24.22509766 61.62695312 C-21.09363379 11.17030762 -21.09363379 11.17030762 -11 2 C-6.85620858 -0.84765943 -4.90742872 -1.53357147 0 0 Z " fill="#FD3AF3" transform="translate(110,23)"/>
<path d="M0 0 C1.8871875 0.0309375 1.8871875 0.0309375 3.8125 0.0625 C4.06 0.619375 4.3075 1.17625 4.5625 1.75 C6.02856015 4.46221127 7.84239471 6.69837365 9.8125 9.0625 C7.9871875 8.7221875 7.9871875 8.7221875 6.125 8.375 C3.32448292 8.05508153 1.90776231 8.0307459 -0.8125 8.9375 C-7.35272471 14.78928001 -10.15729566 21.61467444 -11.4375 30.125 C-11.59460449 31.07616699 -11.75170898 32.02733398 -11.91357422 33.00732422 C-14.01704102 46.40516008 -14.81114827 59.92951242 -15.64453125 73.453125 C-15.72493652 74.69884277 -15.8053418 75.94456055 -15.88818359 77.22802734 C-16.04177725 79.63390567 -16.18468379 82.04049935 -16.31494141 84.44775391 C-17.38749827 101.39908372 -17.38749827 101.39908372 -22.75 106.5 C-23.9565625 107.2734375 -23.9565625 107.2734375 -25.1875 108.0625 C-25.8475 109.0525 -26.5075 110.0425 -27.1875 111.0625 C-34.72382305 112.4636756 -42.65905758 112.46610791 -50.1875 111.0625 C-50.5175 110.4025 -50.8475 109.7425 -51.1875 109.0625 C-50.53523438 108.97613281 -49.88296875 108.88976562 -49.2109375 108.80078125 C-43.23193188 107.83955468 -39.32025007 106.78564294 -35.1875 102.0625 C-28.82579183 91.59716438 -28.6387667 77.15014331 -27.2890625 65.265625 C-21.3269092 12.91221162 -21.3269092 12.91221162 -10 2.875 C-6.51410292 0.62853299 -4.0637365 -0.06661863 0 0 Z " fill="#736FFC" transform="translate(102.1875,14.9375)"/>
<path d="M0 0 C-0.66 1.32 -1.32 2.64 -2 4 C-2.66 4 -3.32 4 -4 4 C-4.33 4.99 -4.66 5.98 -5 7 C-5.66 7 -6.32 7 -7 7 C-7 7.66 -7 8.32 -7 9 C-7.66 9 -8.32 9 -9 9 C-9.226875 9.70125 -9.45375 10.4025 -9.6875 11.125 C-11.00777693 14.01703518 -12.67064109 15.9435445 -14.7578125 18.30859375 C-16.9284771 21.26424712 -17.86468558 24.53430334 -19 28 C-19.66 28 -20.32 28 -21 28 C-21.20625 29.093125 -21.4125 30.18625 -21.625 31.3125 C-23.02522808 37.04725765 -26.04302687 41.94153025 -29 47 C-29.66 47 -30.32 47 -31 47 C-31.0928125 48.2684375 -31.0928125 48.2684375 -31.1875 49.5625 C-32.21053735 53.89073495 -33.89678487 56.82150472 -37 60 C-41.57925702 62.38917758 -45.01261972 61.99747606 -50 61 C-50 60.34 -50 59.68 -50 59 C-50.639375 58.855625 -51.27875 58.71125 -51.9375 58.5625 C-54 58 -54 58 -55 57 C-55.80936706 43.85191463 -49.10846919 31.14798062 -40.7734375 21.39453125 C-39.37127583 19.83629858 -37.95005613 18.29484068 -36.50390625 16.77734375 C-34.78468592 15.13357731 -34.78468592 15.13357731 -35 13 C-34.195625 12.87625 -34.195625 12.87625 -33.375 12.75 C-30.12659309 11.72418729 -27.71248141 10.03436106 -25 8 C-25 7.34 -25 6.68 -25 6 C-24.3296875 5.88785156 -23.659375 5.77570312 -22.96875 5.66015625 C-18.70082393 4.71110427 -14.63552618 3.20502079 -10.52734375 1.72851562 C-6.89759927 0.47093749 -3.84717768 -0.28853833 0 0 Z " fill="#FC47ED" transform="translate(57,2)"/>
<path d="M0 0 C1.89492187 0.15275391 1.89492187 0.15275391 3.828125 0.30859375 C4.79234375 0.39238281 5.7565625 0.47617187 6.75 0.5625 C6.75 1.2225 6.75 1.8825 6.75 2.5625 C5.80125 2.645 4.8525 2.7275 3.875 2.8125 C2.328125 3.18375 2.328125 3.18375 0.75 3.5625 C-0.39209817 5.34478936 -0.39209817 5.34478936 -1.25 7.5625 C-2.013125 8.305 -2.77625 9.0475 -3.5625 9.8125 C-13.82007085 20.30861901 -16.77828744 35.23626617 -20.51416016 48.9519043 C-22.41737623 55.84447928 -24.52331182 62.60408429 -27 69.3125 C-27.28149902 70.07965332 -27.56299805 70.84680664 -27.85302734 71.63720703 C-30.05015517 77.43201703 -32.12297165 82.12647987 -37.3125 85.8125 C-38.00472656 86.31265625 -38.69695313 86.8128125 -39.41015625 87.328125 C-43.17247657 89.85231443 -45.69781789 89.92961146 -50.25 89.5625 C-57.06717896 87.22663235 -60.31096336 83.47105497 -64.25 77.5625 C-64.25 76.5725 -64.25 75.5825 -64.25 74.5625 C-64.91 74.5625 -65.57 74.5625 -66.25 74.5625 C-65.92 73.2425 -65.59 71.9225 -65.25 70.5625 C-63.25 72.5625 -63.25 72.5625 -62.125 75.5 C-59.88949216 79.15132948 -58.35301317 79.9332359 -54.3671875 81.15234375 C-49.44965902 82.10500148 -46.29009422 81.2281603 -42.125 78.5625 C-36.27700415 73.02556776 -34.08546041 66.54255914 -32.4375 58.8125 C-28.7045027 41.34168173 -21.49319509 18.20373168 -8.25 5.5625 C-7.55390625 5.21960938 -6.8578125 4.87671875 -6.140625 4.5234375 C-4.07584853 3.7097931 -4.07584853 3.7097931 -3.25 1.5625 C-5.56 1.5625 -7.87 1.5625 -10.25 1.5625 C-10.91 2.8825 -11.57 4.2025 -12.25 5.5625 C-12.91 5.5625 -13.57 5.5625 -14.25 5.5625 C-14.58 6.8825 -14.91 8.2025 -15.25 9.5625 C-16.24 9.5625 -17.23 9.5625 -18.25 9.5625 C-18.25 8.9025 -18.25 8.2425 -18.25 7.5625 C-16.59614767 6.21330468 -14.928298 4.88116272 -13.25 3.5625 C-12.59 2.5725 -11.93 1.5825 -11.25 0.5625 C-7.61513226 -0.99166074 -3.85352483 -0.32112707 0 0 Z " fill="#3BEBCE" transform="translate(68.25,1.4375)"/>
<path d="M0 0 C2.25539378 0.60923875 4.1378456 1.47187254 6.18359375 2.58984375 C4.18359375 3.58984375 4.18359375 3.58984375 1.37109375 2.96484375 C-1.74995011 2.36155512 -1.74995011 2.36155512 -4.31640625 3.46484375 C-11.0218286 9.16445274 -13.78728533 16.14922033 -15.06640625 24.65234375 C-15.22351074 25.60351074 -15.38061523 26.55467773 -15.54248047 27.53466797 C-17.64594727 40.93250383 -18.44005452 54.45685617 -19.2734375 67.98046875 C-19.35384277 69.22618652 -19.43424805 70.4719043 -19.51708984 71.75537109 C-19.6706835 74.16124942 -19.81359004 76.5678431 -19.94384766 78.97509766 C-21.01640452 95.92642747 -21.01640452 95.92642747 -26.37890625 101.02734375 C-27.58546875 101.80078125 -27.58546875 101.80078125 -28.81640625 102.58984375 C-29.47640625 103.57984375 -30.13640625 104.56984375 -30.81640625 105.58984375 C-34.07421875 106.1015625 -34.07421875 106.1015625 -37.94140625 106.27734375 C-39.22273438 106.34308594 -40.5040625 106.40882812 -41.82421875 106.4765625 C-42.81164063 106.51394531 -43.7990625 106.55132812 -44.81640625 106.58984375 C-45.14640625 105.92984375 -45.47640625 105.26984375 -45.81640625 104.58984375 C-44.82060547 104.47769531 -44.82060547 104.47769531 -43.8046875 104.36328125 C-39.23205476 103.68239287 -36.46186519 103.13917051 -32.87890625 100.08984375 C-27.34002229 91.98637071 -27.09070595 81.46793415 -26.31640625 72.02734375 C-26.071623 69.26775124 -25.81864023 66.50892013 -25.56640625 63.75 C-25.47341248 62.71746094 -25.47341248 62.71746094 -25.37854004 61.6640625 C-22.61308605 31.13402771 -22.61308605 31.13402771 -18.81640625 17.58984375 C-18.15640625 17.58984375 -17.49640625 17.58984375 -16.81640625 17.58984375 C-16.73390625 16.92984375 -16.65140625 16.26984375 -16.56640625 15.58984375 C-14.32757658 6.63452508 -10.18533248 -1.57104782 0 0 Z " fill="#B157F8" transform="translate(105.81640625,20.41015625)"/>
<path d="M0 0 C-0.56847656 0.40089844 -1.13695312 0.80179687 -1.72265625 1.21484375 C-12.57700615 9.2061097 -19.1496073 19.98529108 -25 32 C-25.99 32 -26.98 32 -28 32 C-28.0825 32.70125 -28.165 33.4025 -28.25 34.125 C-29.45499147 38.74413397 -31.68750761 41.92928252 -35.375 44.9375 C-38.74443549 46.30131913 -40.56873408 46.14375531 -44 45 C-45.2890625 43.28515625 -45.2890625 43.28515625 -46 41 C-43.9165891 31.715538 -37.86530328 24.2293273 -32 17 C-31.28714844 16.0821875 -30.57429688 15.164375 -29.83984375 14.21875 C-27.91288066 11.89493888 -26.71205073 11.19649297 -24 10 C-20.78170896 8.07706482 -20.78170896 8.07706482 -18 6 C-18 5.34 -18 4.68 -18 4 C-17.29230469 3.87882813 -16.58460937 3.75765625 -15.85546875 3.6328125 C-11.87612621 2.75093358 -8.21310783 1.2284185 -4.42578125 -0.2578125 C-2 -1 -2 -1 0 0 Z " fill="#FEC122" transform="translate(50,4)"/>
<path d="M0 0 C2.375 2.0625 2.375 2.0625 4 4 C3.12988281 3.87818359 3.12988281 3.87818359 2.2421875 3.75390625 C-1.13272395 3.48101737 -3.86248898 3.27883288 -6.79296875 5.13671875 C-13.5249625 12.28405402 -15.34968463 22.44084451 -15.82421875 31.91796875 C-16 34 -16 34 -17 35 C-17.07211665 37.55563371 -16.99633716 40.09660453 -16.9375 42.65234375 C-17 45 -17 45 -18 47 C-18.13147138 49.15901518 -18.20294087 51.32179111 -18.24609375 53.484375 C-18.27911286 54.82682746 -18.31232277 56.16927523 -18.34570312 57.51171875 C-18.39247314 59.61079562 -18.43673387 61.70986641 -18.47680664 63.80908203 C-18.95788808 87.86315387 -18.95788808 87.86315387 -23 97 C-21.68 97.33 -20.36 97.66 -19 98 C-20.74692795 98.67467562 -22.49768525 99.33944156 -24.25 100 C-25.22453125 100.37125 -26.1990625 100.7425 -27.203125 101.125 C-30 102 -30 102 -34 102 C-33 99 -33 99 -31.04272461 97.58544922 C-26.73370089 94.24102469 -26.26695656 88.10400818 -25.61279297 82.94824219 C-25.32703264 79.59170852 -25.11951262 76.23872422 -24.9375 72.875 C-24.77822642 70.38015183 -24.61805482 67.88536084 -24.45703125 65.390625 C-24.38049316 64.14861328 -24.30395508 62.90660156 -24.22509766 61.62695312 C-21.09363379 11.17030762 -21.09363379 11.17030762 -11 2 C-6.87861085 -0.83663512 -4.88432496 -1.55882711 0 0 Z " fill="#EA42F5" transform="translate(110,23)"/>
<path d="M0 0 C0 0.66 0 1.32 0 2 C-1.69270833 2.65104167 -3.38541667 3.30208333 -5.078125 3.953125 C-10.36398264 6.83241331 -12.49357709 11.48998099 -14.8125 16.8125 C-15.32961548 17.99078369 -15.32961548 17.99078369 -15.85717773 19.19287109 C-20.94795551 31.17680244 -24.28435836 43.78031657 -27.74609375 56.30859375 C-36.1732836 86.55354578 -36.1732836 86.55354578 -45.2578125 93.07421875 C-49.04516689 95.08678151 -52.03335346 95.5074088 -56.1953125 94.43359375 C-62.40403157 92.08690841 -66.05578508 88.2251336 -70 83 C-69.505 82.01 -69.505 82.01 -69 81 C-68.278125 81.61875 -67.55625 82.2375 -66.8125 82.875 C-61.95141712 86.54781818 -58.12111727 87.64432813 -52 87 C-35.02886566 77.83558745 -32.09162452 53.9904184 -27 37 C-26.66129883 35.85716553 -26.32259766 34.71433105 -25.97363281 33.53686523 C-24.29122705 27.93563635 -22.6263544 22.54379831 -20 17.3125 C-19.525625 16.33925781 -19.05125 15.36601562 -18.5625 14.36328125 C-16.87374076 11.8090329 -15.76371063 11.15395016 -13 10 C-12.31513275 8.67592331 -11.65129797 7.34090759 -11 6 C-7.50584118 2.04608344 -5.29502348 0 0 0 Z " fill="#408DF8" transform="translate(77,3)"/>
<path d="M0 0 C1.98 0.33 3.96 0.66 6 1 C6 1.66 6 2.32 6 3 C7.55855981 4.35712166 7.55855981 4.35712166 9.5 5.625 C10.47453125 6.29402344 10.47453125 6.29402344 11.46875 6.9765625 C11.9740625 7.31429688 12.479375 7.65203125 13 8 C11 9 11 9 8.25 9.25 C3.1876029 10.41824548 0.46153 12.76855687 -2.3125 17.00390625 C-10.86673821 33.65793877 -12.08559908 54.4552902 -14.125 72.75 C-14.48234153 75.92389099 -14.84347316 79.09714848 -15.21554565 82.26934814 C-15.44368016 84.2162137 -15.66369541 86.16405706 -15.87356567 88.11297607 C-17.00730141 97.82923325 -18.84489725 107.12774359 -26.20703125 114.0859375 C-29.49921716 116.34212085 -31.87317913 116.77250656 -35.8125 117.25 C-36.97394531 117.39953125 -38.13539062 117.5490625 -39.33203125 117.703125 C-40.21246094 117.80109375 -41.09289063 117.8990625 -42 118 C-42.33 117.34 -42.66 116.68 -43 116 C-42.26394531 115.82984375 -41.52789062 115.6596875 -40.76953125 115.484375 C-32.01691875 113.45976313 -32.01691875 113.45976313 -25.92578125 107.234375 C-20.26528604 95.87129912 -19.41243024 82.34177329 -17.9230957 69.90106201 C-12.16982961 22.35415801 -12.16982961 22.35415801 0 8 C2.3125 6.5625 2.3125 6.5625 4 6 C3.34 5.38125 2.68 4.7625 2 4.125 C0 2 0 2 0 0 Z " fill="#6076FD" transform="translate(90,7)"/>
<path d="M0 0 C0 0.66 0 1.32 0 2 C-0.94875 2.0825 -1.8975 2.165 -2.875 2.25 C-4.421875 2.62125 -4.421875 2.62125 -6 3 C-7.14209817 4.78228936 -7.14209817 4.78228936 -8 7 C-8.763125 7.7425 -9.52625 8.485 -10.3125 9.25 C-20.57007085 19.74611901 -23.52828744 34.67376617 -27.26416016 48.3894043 C-29.16737623 55.28197928 -31.27331182 62.04158429 -33.75 68.75 C-34.03149902 69.51715332 -34.31299805 70.28430664 -34.60302734 71.07470703 C-36.80015517 76.86951703 -38.87297165 81.56397987 -44.0625 85.25 C-44.75472656 85.75015625 -45.44695313 86.2503125 -46.16015625 86.765625 C-49.92247657 89.28981443 -52.44781789 89.36711146 -57 89 C-63.81717896 86.66413235 -67.06096336 82.90855497 -71 77 C-71 76.01 -71 75.02 -71 74 C-71.66 74 -72.32 74 -73 74 C-72.67 72.68 -72.34 71.36 -72 70 C-69.76429263 72.23570737 -69.00769525 74.11568557 -67.75 77 C-65.7813263 81.06672696 -65.7813263 81.06672696 -62.125 83.625 C-61.09375 83.74875 -60.0625 83.8725 -59 84 C-57.88625 84.144375 -56.7725 84.28875 -55.625 84.4375 C-50.94926955 83.8731877 -47.55794643 82.08066093 -44 79 C-43.505 77.515 -43.505 77.515 -43 76 C-42.34 76 -41.68 76 -41 76 C-40.79503906 75.22914062 -40.59007812 74.45828125 -40.37890625 73.6640625 C-40.10949219 72.66117187 -39.84007812 71.65828125 -39.5625 70.625 C-39.29566406 69.62726563 -39.02882812 68.62953125 -38.75390625 67.6015625 C-38 65 -38 65 -37 63 C-36.34 63 -35.68 63 -35 63 C-34.67 60.03 -34.34 57.06 -34 54 C-33.34 54 -32.68 54 -32 54 C-31.9484375 53.37738281 -31.896875 52.75476562 -31.84375 52.11328125 C-30.49605989 41.13266978 -26.12092937 31.18920549 -22 21 C-21.34 21 -20.68 21 -20 21 C-19.89171875 20.28199219 -19.7834375 19.56398438 -19.671875 18.82421875 C-18.94176216 15.75519793 -17.84423816 13.52845728 -16.25 10.8125 C-15.76015625 9.95269531 -15.2703125 9.09289062 -14.765625 8.20703125 C-12.71815503 5.64769378 -11.09717331 4.94284698 -8 4 C-8 3.34 -8 2.68 -8 2 C-5.09399739 0.74335022 -3.20395416 0 0 0 Z " fill="#3EBDE2" transform="translate(75,2)"/>
<path d="M0 0 C3.04470873 1.52235436 4.20270948 4.18424486 6 7 C5.27554688 6.84660156 4.55109375 6.69320313 3.8046875 6.53515625 C-1.74458069 5.50625779 -1.74458069 5.50625779 -6.92578125 7.140625 C-11.00994489 11.65747781 -13.05324897 17.30861609 -15 23 C-15.66 23 -16.32 23 -17 23 C-19.58308369 38.28577761 -21.36824029 53.72326612 -22.75390625 69.16015625 C-22.81662216 69.84883789 -22.87933807 70.53751953 -22.94395447 71.24707031 C-23.25032387 74.61943286 -23.54541945 77.99169305 -23.82202148 81.36669922 C-24.79368045 92.28136074 -25.94050678 101.12308429 -34 109 C-34.99 108.67 -35.98 108.34 -37 108 C-36.2575 107.401875 -35.515 106.80375 -34.75 106.1875 C-28.09064343 99.46832885 -27.22341376 88.69757947 -26.375 79.75 C-26.25439209 78.59975342 -26.13378418 77.44950684 -26.00952148 76.2644043 C-25.16091755 67.79369086 -24.64398558 59.32117662 -24.17443848 50.82391357 C-23.33969783 35.82452536 -21.79875841 22.59751682 -15 9 C-14.34 9 -13.68 9 -13 9 C-12.9175 8.401875 -12.835 7.80375 -12.75 7.1875 C-11.72684695 4.2033036 -10.81266973 3.44239473 -8 2 C-5.27936552 1.75550704 -2.74207626 1.86289619 0 2 C0 1.34 0 0.68 0 0 Z " fill="#9861FA" transform="translate(104,15)"/>
<path d="M0 0 C0.495 0.99 0.495 0.99 1 2 C0.29296875 4.03125 0.29296875 4.03125 -0.8125 6.5 C-2.23688075 9.87630993 -3.2405407 12.87717831 -3.75 16.5 C-4.67118904 21.75915196 -6.71940523 26.39942319 -8.875 31.25 C-9.21499023 32.01892578 -9.55498047 32.78785156 -9.90527344 33.58007812 C-13.21299624 40.83877964 -16.985081 47.76761672 -24 52 C-27.90246386 52.45528745 -30.29397865 52.23534045 -34 51 C-34 50.34 -34 49.68 -34 49 C-34.639375 48.71125 -35.27875 48.4225 -35.9375 48.125 C-38 47 -38 47 -39 45 C-39.66 45.99 -40.32 46.98 -41 48 C-41.125 45.125 -41.125 45.125 -41 42 C-40.34 41.34 -39.68 40.68 -39 40 C-37.68 40.66 -36.36 41.32 -35 42 C-35 42.66 -35 43.32 -35 44 C-30.21162876 44.19153485 -26.34709182 44.12524489 -22 42 C-18.94474825 38.26580341 -17.31964915 34.61877202 -16 30 C-15.34 30 -14.68 30 -14 30 C-13.7525 29.154375 -13.505 28.30875 -13.25 27.4375 C-12.08476321 24.23309882 -10.68618906 21.64962272 -8.953125 18.74609375 C-7.60363374 16.27387001 -6.78882676 13.69515808 -6 11 C-5.34 11 -4.68 11 -4 11 C-3.896875 10.29875 -3.79375 9.5975 -3.6875 8.875 C-2.90640997 5.60862353 -1.57941257 2.9528148 0 0 Z " fill="#58E2CC" transform="translate(42,19)"/>
<path d="M0 0 C1.35309877 0.62557649 2.69381444 1.28159794 4 2 C2 3 2 3 -0.8125 2.375 C-3.93354386 1.77171137 -3.93354386 1.77171137 -6.5 2.875 C-13.20542235 8.57460899 -15.97087908 15.55937658 -17.25 24.0625 C-17.40710449 25.01366699 -17.56420898 25.96483398 -17.72607422 26.94482422 C-19.82954102 40.34266008 -20.62364827 53.86701242 -21.45703125 67.390625 C-21.53743652 68.63634277 -21.6178418 69.88206055 -21.70068359 71.16552734 C-21.85427725 73.57140567 -21.99718379 75.97799935 -22.12744141 78.38525391 C-23.19999827 95.33658372 -23.19999827 95.33658372 -28.5625 100.4375 C-29.7690625 101.2109375 -29.7690625 101.2109375 -31 102 C-31.66 102.99 -32.32 103.98 -33 105 C-35.625 105.1875 -35.625 105.1875 -38 105 C-37 104 -36 103 -35 102 C-34.154375 101.113125 -33.30875 100.22625 -32.4375 99.3125 C-30 97 -30 97 -28 97 C-26.30270835 83.73613966 -25.22745517 70.47545472 -24.32275391 57.13671875 C-22.48200109 30.22642551 -22.48200109 30.22642551 -19 22 C-18.67540498 20.61145464 -18.38286526 19.21497126 -18.125 17.8125 C-16.78882726 11.57006798 -14.71562806 5.73229654 -11.3125 0.3125 C-7.6140087 -1.78664371 -4.02203266 -1.00550817 0 0 Z " fill="#C450F7" transform="translate(108,21)"/>
<path d="M0 0 C0.66 0.33 1.32 0.66 2 1 C1.01 1.33 0.02 1.66 -1 2 C-1.33 2.99 -1.66 3.98 -2 5 C-2.66 5 -3.32 5 -4 5 C-4 5.66 -4 6.32 -4 7 C-4.66 7 -5.32 7 -6 7 C-6.226875 7.70125 -6.45375 8.4025 -6.6875 9.125 C-8.00777693 12.01703518 -9.67064109 13.9435445 -11.7578125 16.30859375 C-13.9284771 19.26424712 -14.86468558 22.53430334 -16 26 C-16.66 26 -17.32 26 -18 26 C-18.20625 27.093125 -18.4125 28.18625 -18.625 29.3125 C-20.02522808 35.04725765 -23.04302687 39.94153025 -26 45 C-26.66 45 -27.32 45 -28 45 C-28.0928125 46.2684375 -28.0928125 46.2684375 -28.1875 47.5625 C-29.21053735 51.89073495 -30.89678487 54.82150472 -34 58 C-38.57925702 60.38917758 -42.01261972 59.99747606 -47 59 C-47 58.34 -47 57.68 -47 57 C-48.32 56.67 -49.64 56.34 -51 56 C-51 55.01 -51 54.02 -51 53 C-50.01 53.66 -49.02 54.32 -48 55 C-42.45960166 55.45413101 -38.68855764 55.30330197 -34 52 C-32.49188354 49.7454937 -31.28596578 47.39455697 -30 45 C-28.515 44.505 -28.515 44.505 -27 44 C-26.67 42.02 -26.34 40.04 -26 38 C-26.66 38 -27.32 38 -28 38 C-26.63408831 34.45756548 -25.09068516 31.07372071 -23.375 27.6875 C-22.92898437 26.80449219 -22.48296875 25.92148437 -22.0234375 25.01171875 C-21.51683594 24.01591797 -21.51683594 24.01591797 -21 23 C-20.34 23 -19.68 23 -19 23 C-18.34 20.69 -17.68 18.38 -17 16 C-16.34 16 -15.68 16 -15 16 C-15 15.34 -15 14.68 -15 14 C-14.34 14 -13.68 14 -13 14 C-12.731875 13.030625 -12.46375 12.06125 -12.1875 11.0625 C-11.795625 10.051875 -11.40375 9.04125 -11 8 C-10.01 7.67 -9.02 7.34 -8 7 C-7.731875 6.38125 -7.46375 5.7625 -7.1875 5.125 C-5.45976336 2.03326074 -3.22117045 1.27504664 0 0 Z " fill="#B787E3" transform="translate(54,4)"/>
<path d="M0 0 C0 3.75745887 -1.37208904 6.51267361 -2.875 9.875 C-6.7224592 18.54641135 -6.7224592 18.54641135 -9.125 27.6875 C-10.63935629 34.95179795 -12.66911959 42.0225938 -14.8125 49.125 C-15.1317041 50.20869873 -15.4509082 51.29239746 -15.77978516 52.40893555 C-19.0812431 63.16269781 -22.59085014 73.30502798 -32 80 C-35.12856476 81.56428238 -37.52712131 81.28007086 -41 81 C-46.40667218 79.11585666 -50.22880321 76.24259639 -54 72 C-53.505 71.01 -53.505 71.01 -53 70 C-52.278125 70.61875 -51.55625 71.2375 -50.8125 71.875 C-45.95141712 75.54781818 -42.12111727 76.64432813 -36 76 C-20.4570154 67.60678832 -17.62720817 48.05350531 -12.9296875 32.4296875 C-12.61330322 31.3778125 -12.29691895 30.3259375 -11.97094727 29.2421875 C-11.30226842 27.00933484 -10.6390074 24.77485489 -9.98022461 22.5390625 C-8.28182584 16.85909182 -6.57278156 11.50092122 -3.8125 6.25 C-3.30332031 5.26515625 -2.79414062 4.2803125 -2.26953125 3.265625 C-1 1 -1 1 0 0 Z " fill="#3F9EF1" transform="translate(61,14)"/>
<path d="M0 0 C0.495 0.99 0.495 0.99 1 2 C0.071875 1.95875 -0.85625 1.9175 -1.8125 1.875 C-5.15809719 1.72863661 -5.15809719 1.72863661 -8 4 C-8.99 4 -9.98 4 -11 4 C-11.99 7.3 -12.98 10.6 -14 14 C-14.66 14 -15.32 14 -16 14 C-19.088868 29.80580327 -20.42748897 45.32224558 -21.02905273 61.3815918 C-22.17111594 90.98920951 -22.17111594 90.98920951 -28 99 C-29.485 99.99 -29.485 99.99 -31 101 C-31.99 100.67 -32.98 100.34 -34 100 C-33.236875 99.54625 -32.47375 99.0925 -31.6875 98.625 C-25.07446639 92.16575787 -25.40893539 81.58746542 -24.9375 72.875 C-24.77822642 70.38015183 -24.61805482 67.88536084 -24.45703125 65.390625 C-24.38049316 64.14861328 -24.30395508 62.90660156 -24.22509766 61.62695312 C-21.09363379 11.17030762 -21.09363379 11.17030762 -11 2 C-6.89820489 -0.84899877 -4.88628666 -1.4436756 0 0 Z " fill="#D748F6" transform="translate(110,23)"/>
<path d="M0 0 C1 2 1 2 0.51171875 3.84765625 C0.23972656 4.57855469 -0.03226563 5.30945312 -0.3125 6.0625 C-1.93504194 10.6472974 -3.04283895 15.23671618 -4 20 C-4.66 20 -5.32 20 -6 20 C-6.33 22.97 -6.66 25.94 -7 29 C-7.66 29 -8.32 29 -9 29 C-9.12117188 29.60328125 -9.24234375 30.2065625 -9.3671875 30.828125 C-9.53476562 31.62734375 -9.70234375 32.4265625 -9.875 33.25 C-10.03742187 34.03890625 -10.19984375 34.8278125 -10.3671875 35.640625 C-10.99150075 37.96831144 -11.84838542 39.89031952 -13 42 C-13.66 42 -14.32 42 -15 42 C-15.09023438 42.60328125 -15.18046875 43.2065625 -15.2734375 43.828125 C-16.42281338 47.26389375 -18.7846101 48.26227372 -21.8125 50.01953125 C-26.16142754 51.9687827 -29.80701698 51.27010936 -34.3125 50.25 C-37 49 -37 49 -38.375 46.875 C-38.58125 46.25625 -38.7875 45.6375 -39 45 C-37.2365625 45.5259375 -37.2365625 45.5259375 -35.4375 46.0625 C-31.29550222 47.07060528 -28.17510543 47.15975151 -24 46 C-18.8239481 42.37539071 -16.38426333 38.73670321 -13.75 33.0625 C-13.41226563 32.37220703 -13.07453125 31.68191406 -12.7265625 30.97070312 C-11.22626623 27.85493036 -9.95423869 24.85804327 -8.890625 21.55859375 C-8 19 -8 19 -6 18 C-5.41838369 15.88515148 -5.41838369 15.88515148 -5.0625 13.375 C-3.22821804 3.22821804 -3.22821804 3.22821804 0 0 Z " fill="#3CD4D9" transform="translate(47,36)"/>
<path d="M0 0 C0.33 0 0.66 0 1 0 C0.62325699 11.39322813 -0.14360926 22.72198936 -1.3125 34.0625 C-1.41796143 35.17858643 -1.52342285 36.29467285 -1.63208008 37.44458008 C-2.56529569 46.03285014 -4.11671187 57.04688594 -11 63 C-16.64421619 65.7382831 -21.7984142 66.33826832 -28 66 C-28.33 65.34 -28.66 64.68 -29 64 C-28.01257812 63.97421875 -27.02515625 63.9484375 -26.0078125 63.921875 C-24.72648437 63.86515625 -23.44515625 63.8084375 -22.125 63.75 C-20.84882812 63.70359375 -19.57265625 63.6571875 -18.2578125 63.609375 C-16.64519531 63.30773437 -16.64519531 63.30773437 -15 63 C-13.59546324 61.12926011 -13.59546324 61.12926011 -13 59 C-12.360625 58.46375 -11.72125 57.9275 -11.0625 57.375 C-5.84674484 51.36897891 -5.41241634 42.07520496 -4.6484375 34.43359375 C-4.54407379 33.47348892 -4.43971008 32.51338409 -4.33218384 31.52418518 C-4.00422379 28.4961627 -3.68878991 25.46702086 -3.375 22.4375 C-3.05226523 19.37608215 -2.72682262 16.31500684 -2.39639282 13.25440979 C-2.19226073 11.35855777 -1.99288231 9.4621868 -1.79867554 7.56529236 C-1.70833038 6.71673172 -1.61798523 5.86817108 -1.52490234 4.99389648 C-1.44734711 4.24462387 -1.36979187 3.49535126 -1.28988647 2.72337341 C-1 1 -1 1 0 0 Z " fill="#836AFB" transform="translate(80,60)"/>
<path d="M0 0 C1 2 1 2 0.00390625 5.0390625 C-0.70958984 6.81410156 -0.70958984 6.81410156 -1.4375 8.625 C-1.91058594 9.81351563 -2.38367187 11.00203125 -2.87109375 12.2265625 C-3.24363281 13.14179687 -3.61617187 14.05703125 -4 15 C-4.66 15 -5.32 15 -6 15 C-6.0825 15.680625 -6.165 16.36125 -6.25 17.0625 C-7.03163857 20.12391774 -8.34034666 22.42716007 -9.96484375 25.1171875 C-11.01425172 27.025922 -11.73134379 28.87955903 -12.4375 30.9375 C-13.98936376 35.25572959 -15.94837598 39.53342427 -19 43 C-21.16015625 43.72265625 -21.16015625 43.72265625 -23 44 C-23 44.66 -23 45.32 -23 46 C-26.74422929 48.49615286 -30.65117199 48.61489576 -35 48 C-37.5 46.5 -37.5 46.5 -39 45 C-39.66 45.99 -40.32 46.98 -41 48 C-41.125 45.125 -41.125 45.125 -41 42 C-40.34 41.34 -39.68 40.68 -39 40 C-37.68 40.66 -36.36 41.32 -35 42 C-35 42.66 -35 43.32 -35 44 C-30.21162876 44.19153485 -26.34709182 44.12524489 -22 42 C-18.94474825 38.26580341 -17.31964915 34.61877202 -16 30 C-15.34 30 -14.68 30 -14 30 C-13.7525 29.154375 -13.505 28.30875 -13.25 27.4375 C-12.08476321 24.23309882 -10.68618906 21.64962272 -8.953125 18.74609375 C-7.60363374 16.27387001 -6.78882676 13.69515808 -6 11 C-5.34 11 -4.68 11 -4 11 C-3.896875 10.29875 -3.79375 9.5975 -3.6875 8.875 C-2.90640997 5.60862353 -1.57941257 2.9528148 0 0 Z " fill="#93A9D9" transform="translate(42,19)"/>
<path d="M0 0 C1.47937728 3.91997747 0.51149439 7.36914388 -0.3125 11.32421875 C-1.63801481 18.22434661 -2.4852219 25.08066685 -3.0625 32.08203125 C-3.14161621 33.03778046 -3.22073242 33.99352966 -3.30224609 34.97824097 C-3.62117906 38.91891255 -3.92693305 42.86053089 -4.22949219 46.80249023 C-6.63134299 77.6946493 -6.63134299 77.6946493 -14 86 C-18.08346122 88.78022891 -21.10344225 89.34975412 -26 89 C-26.33 88.34 -26.66 87.68 -27 87 C-26.00419922 86.88785156 -26.00419922 86.88785156 -24.98828125 86.7734375 C-20.41564851 86.09254912 -17.64545894 85.54932676 -14.0625 82.5 C-8.52361604 74.39652696 -8.2742997 63.8780904 -7.5 54.4375 C-7.25521675 51.67790749 -7.00223398 48.91907638 -6.75 46.16015625 C-6.65700623 45.12761719 -6.65700623 45.12761719 -6.56213379 44.07421875 C-3.7966798 13.54418396 -3.7966798 13.54418396 0 0 Z " fill="#A35DF9" transform="translate(87,38)"/>
<path d="M0 0 C1.57354375 4.72063125 -0.19469049 8.48998492 -2 13 C-5.44657857 19.35987565 -9.08960229 24.79680071 -16.25 27 C-21.1345133 27 -24.84126702 25.52558247 -29 23 C-29.33 22.34 -29.66 21.68 -30 21 C-29.195625 21.165 -28.39125 21.33 -27.5625 21.5 C-19.13961597 22.91983638 -19.13961597 22.91983638 -11.4375 20 C-5.96049379 14.72870294 -3.11236324 6.80677883 0 0 Z " fill="#3BEDCD" transform="translate(36,57)"/>
<path d="M0 0 C0.66 0 1.32 0 2 0 C1.6201758 5.44414691 -0.07403548 7.35446152 -4 11 C-4.495 11.886875 -4.99 12.77375 -5.5 13.6875 C-7.42236824 16.65115104 -8.58384227 17.16493922 -12 18 C-15.77202364 18.42078351 -18.99733487 18.47626594 -22.5 16.8125 C-24 15 -24 15 -24.25 12.3125 C-24.1675 11.549375 -24.085 10.78625 -24 10 C-23.319375 10.495 -22.63875 10.99 -21.9375 11.5 C-18.27568094 13.36986505 -16.06785405 13.50848176 -12 13 C-9.14073689 11.18046893 -7.353594 9.48959169 -5.375 6.75 C-4.694375 5.88375 -4.694375 5.88375 -4 5 C-3.01 5 -2.02 5 -1 5 C-0.67 3.35 -0.34 1.7 0 0 Z " fill="#EE52F0" transform="translate(26,42)"/>
<path d="M0 0 C0.66 0.33 1.32 0.66 2 1 C1.01 1.33 0.02 1.66 -1 2 C-1.33 2.99 -1.66 3.98 -2 5 C-2.66 5 -3.32 5 -4 5 C-4 5.66 -4 6.32 -4 7 C-4.66 7 -5.32 7 -6 7 C-6.2475 7.7425 -6.495 8.485 -6.75 9.25 C-8.11977727 12.26350999 -9.5692094 13.78369093 -12 16 C-14.81576178 18.57441077 -16.45117921 20.15825448 -17 24 C-17.66 24 -18.32 24 -19 24 C-19.2475 24.825 -19.495 25.65 -19.75 26.5 C-21.18704811 30.52373471 -23.02354515 34.21979024 -25 38 C-25.99 38 -26.98 38 -28 38 C-26.63408831 34.45756548 -25.09068516 31.07372071 -23.375 27.6875 C-22.92898437 26.80449219 -22.48296875 25.92148437 -22.0234375 25.01171875 C-21.51683594 24.01591797 -21.51683594 24.01591797 -21 23 C-20.34 23 -19.68 23 -19 23 C-18.01 19.535 -18.01 19.535 -17 16 C-16.34 16 -15.68 16 -15 16 C-15 15.34 -15 14.68 -15 14 C-14.34 14 -13.68 14 -13 14 C-12.731875 13.030625 -12.46375 12.06125 -12.1875 11.0625 C-11.795625 10.051875 -11.40375 9.04125 -11 8 C-10.01 7.67 -9.02 7.34 -8 7 C-7.731875 6.38125 -7.46375 5.7625 -7.1875 5.125 C-5.45976336 2.03326074 -3.22117045 1.27504664 0 0 Z " fill="#E957EF" transform="translate(54,4)"/>
<path d="M0 0 C-1.91322378 2.2508515 -3.94232952 3.59409234 -6.5 5 C-11.61090669 7.85609491 -13.49338124 10.62867408 -16 16 C-16.66 16 -17.32 16 -18 16 C-18 16.66 -18 17.32 -18 18 C-18.66 18 -19.32 18 -20 18 C-20 18.66 -20 19.32 -20 20 C-20.804375 20.2475 -21.60875 20.495 -22.4375 20.75 C-23.283125 21.1625 -24.12875 21.575 -25 22 C-25.66179847 23.98045559 -25.66179847 23.98045559 -26 26 C-26.99 26.66 -27.98 27.32 -29 28 C-28 26 -28 26 -27 24 C-26.67902344 23.33742188 -26.35804687 22.67484375 -26.02734375 21.9921875 C-21.4733869 13.14543262 -11.6681275 -1.82314492 0 0 Z " fill="#FC5EC8" transform="translate(57,2)"/>
<path d="M0 0 C0.98484375 0.10183594 1.9696875 0.20367187 2.984375 0.30859375 C3.73203125 0.39238281 4.4796875 0.47617187 5.25 0.5625 C2.25 2.5625 2.25 2.5625 0.25 2.5625 C0.25 3.2225 0.25 3.8825 0.25 4.5625 C-0.53375 4.81 -1.3175 5.0575 -2.125 5.3125 C-5.25565463 6.80328792 -5.39833083 7.4790047 -6.75 10.5625 C-7.17539062 11.48546875 -7.60078125 12.4084375 -8.0390625 13.359375 C-8.47992188 14.33390625 -8.92078125 15.3084375 -9.375 16.3125 C-9.82101563 17.29734375 -10.26703125 18.2821875 -10.7265625 19.296875 C-11.06429687 20.04453125 -11.40203125 20.7921875 -11.75 21.5625 C-12.41 21.5625 -13.07 21.5625 -13.75 21.5625 C-13.94335938 22.26117187 -14.13671875 22.95984375 -14.3359375 23.6796875 C-14.59632812 24.58976562 -14.85671875 25.49984375 -15.125 26.4375 C-15.38023438 27.34242187 -15.63546875 28.24734375 -15.8984375 29.1796875 C-16.75 31.5625 -16.75 31.5625 -18.75 33.5625 C-17.36052203 21.00048485 -10.740496 10.23190686 -1.75 1.5625 C-4.06 1.5625 -6.37 1.5625 -8.75 1.5625 C-9.41 2.8825 -10.07 4.2025 -10.75 5.5625 C-11.41 5.5625 -12.07 5.5625 -12.75 5.5625 C-13.08 6.8825 -13.41 8.2025 -13.75 9.5625 C-14.74 9.5625 -15.73 9.5625 -16.75 9.5625 C-16.75 8.9025 -16.75 8.2425 -16.75 7.5625 C-15.09614767 6.21330468 -13.428298 4.88116272 -11.75 3.5625 C-11.09 2.5725 -10.43 1.5825 -9.75 0.5625 C-6.46531367 -0.76736194 -3.47024748 -0.37181223 0 0 Z " fill="#3CD7D7" transform="translate(66.75,1.4375)"/>
<path d="M0 0 C3.04470873 1.52235436 4.20270948 4.18424486 6 7 C3.03 6.505 3.03 6.505 0 6 C0.33 5.01 0.66 4.02 1 3 C-2.96321859 3.3522861 -6.57132445 3.87293373 -9.7578125 6.38671875 C-18.35110163 16.75715406 -20.05989857 32.11330999 -22 45 C-22.33 45 -22.66 45 -23 45 C-23.95957047 32.41896499 -20.6061262 20.2122524 -15 9 C-14.34 9 -13.68 9 -13 9 C-12.9175 8.401875 -12.835 7.80375 -12.75 7.1875 C-11.72684695 4.2033036 -10.81266973 3.44239473 -8 2 C-5.27936552 1.75550704 -2.74207626 1.86289619 0 2 C0 1.34 0 0.68 0 0 Z " fill="#8568FB" transform="translate(104,15)"/>
<path d="M0 0 C0.33 0.66 0.66 1.32 1 2 C-0.0390625 4.27734375 -0.0390625 4.27734375 -1.625 6.9375 C-2.13289063 7.81277344 -2.64078125 8.68804687 -3.1640625 9.58984375 C-5.22360452 12.2935404 -6.92210729 13.58236163 -10 15 C-13.8125 14.6875 -13.8125 14.6875 -17 14 C-17 13.34 -17 12.68 -17 12 C-18.32 11.67 -19.64 11.34 -21 11 C-21 10.01 -21 9.02 -21 8 C-19.515 8.99 -19.515 8.99 -18 10 C-12.45960166 10.45413101 -8.68855764 10.30330197 -4 7 C-2.37958752 4.73544839 -1.23463491 2.51675577 0 0 Z " fill="#C679E6" transform="translate(24,49)"/>
<path d="M0 0 C0.33 0 0.66 0 1 0 C0.47334284 7.26232511 -1.63103591 13.9736656 -3.81079102 20.88378906 C-4.44169911 22.88834163 -5.05836912 24.89690705 -5.67382812 26.90625 C-6.07208018 28.18515661 -6.47113955 29.46381218 -6.87109375 30.7421875 C-7.23130615 31.8957373 -7.59151855 33.04928711 -7.96264648 34.23779297 C-9 37 -9 37 -11 39 C-11.38615537 34.55921323 -10.98946545 31.57312512 -9.21875 27.46875 C-6.89652259 21.8651143 -5.05080759 16.16386217 -3.25 10.375 C-2.93417969 9.37082031 -2.61835937 8.36664063 -2.29296875 7.33203125 C-1.52518473 4.88908208 -0.76092368 2.44509287 0 0 Z " fill="#3EAEE9" transform="translate(50,35)"/>
<path d="M0 0 C0.6875 1.8125 0.6875 1.8125 1 4 C0.0246803 5.02408568 -0.98198643 6.01834406 -2 7 C-2.45375 8.134375 -2.9075 9.26875 -3.375 10.4375 C-5.17667153 14.38731835 -6.24103836 15.87536951 -10 18 C-15.05743645 19.2505661 -19.30235837 19.57612606 -24 17 C-24 16.01 -24 15.02 -24 14 C-23.34 14.66 -22.68 15.32 -22 16 C-17.82016197 16.20225023 -14.00952575 16.33650858 -10 15 C-10 14.34 -10 13.68 -10 13 C-9.38125 12.95875 -8.7625 12.9175 -8.125 12.875 C-7.073125 12.441875 -7.073125 12.441875 -6 12 C-5.26480478 10.02416285 -4.60927518 8.01822402 -4 6 C-2.71927629 3.9659094 -1.39712274 1.95597184 0 0 Z " fill="#71CAD2" transform="translate(29,50)"/>
<path d="M0 0 C0.66 0 1.32 0 2 0 C1.70738281 0.70253906 1.41476563 1.40507812 1.11328125 2.12890625 C-0.01327819 5.03424376 -0.9106393 7.95560312 -1.8125 10.9375 C-3.46854718 16.00562929 -5.24667382 19.24667382 -9 23 C-10.32755268 19.01734195 -8.94435622 16.82018691 -7.3125 13.1875 C-6.79300781 11.98480469 -6.27351563 10.78210938 -5.73828125 9.54296875 C-4.02881324 6.05872721 -2.32660777 3.09424618 0 0 Z " fill="#58E2CC" transform="translate(48,11)"/>
<path d="M0 0 C1.5749904 3.14998079 0.25243821 5.45416015 -0.765625 8.71484375 C-3.38058544 15.67427959 -6.73975827 22.3246357 -10 29 C-10.66 29 -11.32 29 -12 29 C-12.0825 29.763125 -12.165 30.52625 -12.25 31.3125 C-13.14615794 34.52373261 -14.21611025 35.29374499 -17 37 C-17.66 36.67 -18.32 36.34 -19 36 C-18.29875 35.401875 -17.5975 34.80375 -16.875 34.1875 C-8.34819094 25.5886334 -3.6330135 11.32746191 0 0 Z " fill="#47F2C8" transform="translate(39,33)"/>
<path d="M0 0 C0.66 0 1.32 0 2 0 C1.6201758 5.44414691 -0.07403548 7.35446152 -4 11 C-4.495 11.886875 -4.99 12.77375 -5.5 13.6875 C-7.42236824 16.65115104 -8.58384227 17.16493922 -12 18 C-14.6917595 18.14509484 -17.29983436 18.09153104 -20 18 C-20 17.67 -20 17.34 -20 17 C-19.39671875 16.89042969 -18.7934375 16.78085937 -18.171875 16.66796875 C-11.95978049 15.59303072 -11.95978049 15.59303072 -7 12 C-6.67 10.96875 -6.34 9.9375 -6 8.875 C-5.67 7.92625 -5.34 6.9775 -5 6 C-2.875 5.125 -2.875 5.125 -1 5 C-0.67 3.35 -0.34 1.7 0 0 Z " fill="#E25EED" transform="translate(26,42)"/>
<path d="M0 0 C0.33 0 0.66 0 1 0 C0.42902005 6.85175943 -1.56858024 12.21101851 -6.125 17.4375 C-10.27221759 19.6914226 -14.33979712 19.81902125 -19 20 C-16.55773646 18.76820332 -14.10831436 17.58718258 -11.625 16.4375 C-5.51989432 12.94511696 -2.3945666 6.37426884 0 0 Z " fill="#3CDED4" transform="translate(35,65)"/>
<path d="M0 0 C0.33 0.66 0.66 1.32 1 2 C-1.49213312 6.15355519 -3.42523201 9.14830819 -8 11 C-11.3125 10.6875 -11.3125 10.6875 -14 10 C-14.33 9.01 -14.66 8.02 -15 7 C-14.40832031 6.98582031 -13.81664062 6.97164062 -13.20703125 6.95703125 C-8.70077808 6.68503881 -6.57362742 6.47802285 -3 3.5 C-2.34 2.675 -1.68 1.85 -1 1 C-0.67 0.67 -0.34 0.34 0 0 Z " fill="#FFAB44" transform="translate(20,39)"/>
<path d="M0 0 C0 0.66 0 1.32 0 2 C-1.423125 2.12375 -1.423125 2.12375 -2.875 2.25 C-4.421875 2.62125 -4.421875 2.62125 -6 3 C-7.14209817 4.78228936 -7.14209817 4.78228936 -8 7 C-10.54716565 9.74310146 -12.88140016 11.92093344 -16 14 C-15.58682778 9.17965738 -13.61980085 7.09007389 -10 4 C-9.34 4 -8.68 4 -8 4 C-8 3.34 -8 2.68 -8 2 C-5.09399739 0.74335022 -3.20395416 0 0 0 Z " fill="#41B2E7" transform="translate(75,2)"/>
<path d="M0 0 C0.33 0.66 0.66 1.32 1 2 C0.0625 4.625 0.0625 4.625 -1 7 C-1.66 7 -2.32 7 -3 7 C-3.2475 7.53625 -3.495 8.0725 -3.75 8.625 C-6.38302468 13.62774689 -8.64825357 17.70639439 -14 20 C-19.18644068 20.40677966 -19.18644068 20.40677966 -22 19 C-21.67 18.34 -21.34 17.68 -21 17 C-20.113125 17.226875 -19.22625 17.45375 -18.3125 17.6875 C-15.0825422 18.20968556 -15.0825422 18.20968556 -12.4375 17.1875 C-9.2267067 14.30601883 -7.90638963 11.1053988 -6.2109375 7.1796875 C-5 5 -5 5 -2 4 C-0.79117904 1.99983534 -0.79117904 1.99983534 0 0 Z " fill="#FF65BA" transform="translate(27,31)"/>
<path d="M0 0 C1 2 1 2 0 5.25 C-1.99160417 9.56815994 -4.8720453 12.6315014 -9 15 C-12.90246386 15.45528745 -15.29397865 15.23534045 -19 14 C-19 13.34 -19 12.68 -19 12 C-17.453125 12.0309375 -17.453125 12.0309375 -15.875 12.0625 C-12.44847031 12.00723339 -9.35427586 11.65449285 -6 11 C-5.67 10.01 -5.34 9.02 -5 8 C-4.34 8 -3.68 8 -3 8 C-2.87625 7.4225 -2.7525 6.845 -2.625 6.25 C-1.99351176 3.97664233 -1.11141809 2.0746471 0 0 Z " fill="#5CDECD" transform="translate(27,56)"/>
<path d="M0 0 C0.61875 0.804375 1.2375 1.60875 1.875 2.4375 C3.74164041 5.03874519 3.74164041 5.03874519 6 6 C6 6.66 6 7.32 6 8 C9.96 8 13.92 8 18 8 C17.67 8.99 17.34 9.98 17 11 C14.69 11.33 12.38 11.66 10 12 C10 11.34 10 10.68 10 10 C9.236875 9.896875 8.47375 9.79375 7.6875 9.6875 C4.82940576 8.95635961 3.84257115 8.23048087 2 6 C1.34 7.32 0.68 8.64 0 10 C0 6.7 0 3.4 0 0 Z " fill="#49EFCA" transform="translate(2,62)"/>
<path d="M0 0 C0.66 0.33 1.32 0.66 2 1 C1.01 1.33 0.02 1.66 -1 2 C-1.33 2.99 -1.66 3.98 -2 5 C-2.66 5 -3.32 5 -4 5 C-4 5.66 -4 6.32 -4 7 C-4.66 7 -5.32 7 -6 7 C-6.4021875 8.1446875 -6.4021875 8.1446875 -6.8125 9.3125 C-7.94424112 11.87380884 -8.91223401 13.19692938 -11 15 C-11 12.69 -11 10.38 -11 8 C-10.01 7.67 -9.02 7.34 -8 7 C-7.731875 6.38125 -7.46375 5.7625 -7.1875 5.125 C-5.45976336 2.03326074 -3.22117045 1.27504664 0 0 Z " fill="#BC82E4" transform="translate(54,4)"/>
<path d="M0 0 C-2.38599482 2.80705273 -5.17751615 4.28192177 -8.36328125 6.01171875 C-10.1361871 6.98012125 -10.1361871 6.98012125 -11.6875 8.8125 C-12.120625 9.204375 -12.55375 9.59625 -13 10 C-15.08203125 9.57421875 -15.08203125 9.57421875 -17 9 C-6.28795547 -0.53896761 -6.28795547 -0.53896761 0 0 Z " fill="#FA52DE" transform="translate(57,2)"/>
<path d="M0 0 C0.98484375 0.10183594 1.9696875 0.20367187 2.984375 0.30859375 C3.73203125 0.39238281 4.4796875 0.47617187 5.25 0.5625 C1.7013865 2.92824234 0.6735475 2.67115265 -3.4375 2.1875 C-4.92830078 2.02121094 -4.92830078 2.02121094 -6.44921875 1.8515625 C-7.20847656 1.75617188 -7.96773437 1.66078125 -8.75 1.5625 C-9.41 2.8825 -10.07 4.2025 -10.75 5.5625 C-11.41 5.5625 -12.07 5.5625 -12.75 5.5625 C-13.08 6.8825 -13.41 8.2025 -13.75 9.5625 C-14.74 9.5625 -15.73 9.5625 -16.75 9.5625 C-16.75 8.9025 -16.75 8.2425 -16.75 7.5625 C-15.09614767 6.21330468 -13.428298 4.88116272 -11.75 3.5625 C-11.09 2.5725 -10.43 1.5825 -9.75 0.5625 C-6.46531367 -0.76736194 -3.47024748 -0.37181223 0 0 Z " fill="#69CECF" transform="translate(66.75,1.4375)"/>
<path d="M0 0 C0.66 0.33 1.32 0.66 2 1 C1.24203125 1.83144531 1.24203125 1.83144531 0.46875 2.6796875 C-0.1809375 3.40414062 -0.830625 4.12859375 -1.5 4.875 C-2.1496875 5.59429687 -2.799375 6.31359375 -3.46875 7.0546875 C-5.20617272 8.84931098 -5.20617272 8.84931098 -5 11 C-7.66666667 11.66666667 -10.33333333 12.33333333 -13 13 C-8.66666667 8.66666667 -4.33333333 4.33333333 0 0 Z " fill="#F144F5" transform="translate(111,102)"/>
<path d="M0 0 C0 3 0 3 -1.9375 5.625 C-5.910445 8.70605939 -9.09068217 8.8823475 -14 9 C-14.33 8.34 -14.66 7.68 -15 7 C-14.33613281 6.91363281 -13.67226563 6.82726562 -12.98828125 6.73828125 C-6.97700641 5.78174263 -3.80408362 4.81850592 0 0 Z " fill="#A962F2" transform="translate(75,118)"/>
<path d="M0 0 C0.66 0 1.32 0 2 0 C1.33491686 7.04988124 1.33491686 7.04988124 -2 10 C-3.04622875 11.97620986 -4.05439935 13.9737129 -5 16 C-5.6484375 14.25 -5.6484375 14.25 -6 12 C-5.0390625 10 -5.0390625 10 -3.625 8 C-1.75578976 5.32671608 -0.61780699 3.21834337 0 0 Z " fill="#6FCCD2" transform="translate(36,34)"/>
<path d="M0 0 C1.2375 0.7115625 1.2375 0.7115625 2.5 1.4375 C6.52795901 3.23569599 9.63173579 3.6234255 14 4 C14 4.66 14 5.32 14 6 C7.25 7.125 7.25 7.125 5 6 C5 5.34 5 4.68 5 4 C4.360625 3.896875 3.72125 3.79375 3.0625 3.6875 C2.381875 3.460625 1.70125 3.23375 1 3 C0.67 2.01 0.34 1.02 0 0 Z " fill="#B885E3" transform="translate(2,57)"/>
<path d="M0 0 C2.97 0.495 2.97 0.495 6 1 C6 1.66 6 2.32 6 3 C7.55855981 4.35712166 7.55855981 4.35712166 9.5 5.625 C10.1496875 6.07101563 10.799375 6.51703125 11.46875 6.9765625 C11.9740625 7.31429688 12.479375 7.65203125 13 8 C9.88772805 8 7.05847848 7.54372951 4 7 C4 6.34 4 5.68 4 5 C3.34 4.505 2.68 4.01 2 3.5 C1.34 3.005 0.68 2.51 0 2 C0 1.34 0 0.68 0 0 Z " fill="#5E80F7" transform="translate(90,7)"/>
<path d="M0 0 C0.66 0 1.32 0 2 0 C0.62712658 3.69876091 -1.06355453 6.9514476 -3.125 10.3125 C-3.66382813 11.19550781 -4.20265625 12.07851563 -4.7578125 12.98828125 C-5.37269531 13.98408203 -5.37269531 13.98408203 -6 15 C-6.33 14.34 -6.66 13.68 -7 13 C-6.07421875 10.72265625 -6.07421875 10.72265625 -4.6875 8.0625 C-4.23761719 7.18722656 -3.78773437 6.31195312 -3.32421875 5.41015625 C-2 3 -2 3 0 0 Z " fill="#70CBD2" transform="translate(48,11)"/>
<path d="M0 0 C2.83222793 3.37169992 4.52103176 6.85888893 6 11 C5.6875 13.4375 5.6875 13.4375 5 15 C2.82813579 12.82813579 2.3206752 11.50023469 1.375 8.625 C1.11460938 7.85414062 0.85421875 7.08328125 0.5859375 6.2890625 C0 4 0 4 0 0 Z " fill="#528AF6" transform="translate(3,76)"/>
<path d="M0 0 C0.66 0.33 1.32 0.66 2 1 C0.01559292 3.68478605 -1.15645412 4.03631971 -4.5 4.8125 C-8 5 -8 5 -11 3 C-10.67 2.34 -10.34 1.68 -10 1 C-9.278125 1.20625 -8.55625 1.4125 -7.8125 1.625 C-4.53640014 2.06181331 -2.97988854 1.28860045 0 0 Z " fill="#FF8D77" transform="translate(16,45)"/>
<path d="M0 0 C0.33 0.66 0.66 1.32 1 2 C0.0625 4.625 0.0625 4.625 -1 7 C-1.66 7 -2.32 7 -3 7 C-3.28875 7.639375 -3.5775 8.27875 -3.875 8.9375 C-5 11 -5 11 -7 12 C-6.1875 8.5625 -6.1875 8.5625 -5 5 C-4.01 4.67 -3.02 4.34 -2 4 C-0.79117904 1.99983534 -0.79117904 1.99983534 0 0 Z " fill="#FF789A" transform="translate(27,31)"/>
<path d="M0 0 C0.8125 1.6875 0.8125 1.6875 1 4 C-1.3125 6.5 -1.3125 6.5 -4 9 C-5.29519995 11.16620544 -5.29519995 11.16620544 -6 13 C-5.67 10.36 -5.34 7.72 -5 5 C-4.34 5 -3.68 5 -3 5 C-3 4.34 -3 3.68 -3 3 C-2.34 3 -1.68 3 -1 3 C-0.67 2.01 -0.34 1.02 0 0 Z " fill="#D768EB" transform="translate(42,15)"/>
<path d="M0 0 C-0.97296654 2.65354511 -1.65792423 3.79877896 -4.125 5.25 C-7.87688545 6.22875273 -11.1264351 6.13130728 -15 6 C-15 5.67 -15 5.34 -15 5 C-14.09507813 4.83564453 -14.09507813 4.83564453 -13.171875 4.66796875 C-8.76804586 3.79430587 -3.84756477 0 0 0 Z " fill="#D966EB" transform="translate(21,54)"/>
<path d="M0 0 C0.66 0 1.32 0 2 0 C1.5206753 4.31392226 0.2542015 6.16569547 -3 9 C-3.99 8.67 -4.98 8.34 -6 8 C-5.566875 7.50628906 -5.13375 7.01257813 -4.6875 6.50390625 C-4.130625 5.86324219 -3.57375 5.22257812 -3 4.5625 C-2.443125 3.92441406 -1.88625 3.28632813 -1.3125 2.62890625 C0.10457065 1.21886821 0.10457065 1.21886821 0 0 Z " fill="#F2B93E" transform="translate(22,15)"/>
<path d="M0 0 C-3.75 3 -3.75 3 -6 3 C-6.33 3.99 -6.66 4.98 -7 6 C-7.99 6.33 -8.98 6.66 -10 7 C-7.6551217 1.76911763 -5.98347266 -0.48514643 0 0 Z " fill="#B556F8" transform="translate(104,20)"/>
<path d="M0 0 C-5.29230769 4.06153846 -5.29230769 4.06153846 -8.875 3.75 C-9.57625 3.5025 -10.2775 3.255 -11 3 C-3.71428571 -1.85714286 -3.71428571 -1.85714286 0 0 Z " fill="#F8B241" transform="translate(50,4)"/>
<path d="M0 0 C3.0916909 2.52956528 3.90931332 5.22454612 5 9 C2 8 2 8 0.8125 6.1875 C0 4 0 4 0 0 Z " fill="#EE48F2" transform="translate(117,32)"/>
<path d="M0 0 C-2.35277269 2.72426311 -4.62496331 3.8141763 -8 5 C-7.625 3.0625 -7.625 3.0625 -7 1 C-4.53721199 -0.231394 -2.7204945 -0.07159196 0 0 Z " fill="#E655EC" transform="translate(57,2)"/>
<path d="M0 0 C0.99 0.33 1.98 0.66 3 1 C1.68 3.31 0.36 5.62 -1 8 C-1.93065133 5.39417629 -2.14917407 4.35801776 -1.0625 1.75 C-0.711875 1.1725 -0.36125 0.595 0 0 Z " fill="#ED48F2" transform="translate(119,88)"/>
<path d="M0 0 C3.04470873 1.52235436 4.20270948 4.18424486 6 7 C3.03 6.505 3.03 6.505 0 6 C0.33 5.01 0.66 4.02 1 3 C0.34 2.67 -0.32 2.34 -1 2 C-0.67 1.34 -0.34 0.68 0 0 Z " fill="#926BF4" transform="translate(104,15)"/>
<path d="M0 0 C-0.99 0.33 -1.98 0.66 -3 1 C-3.33 1.99 -3.66 2.98 -4 4 C-4.66 4 -5.32 4 -6 4 C-6 4.66 -6 5.32 -6 6 C-6.66 6 -7.32 6 -8 6 C-6.53781513 1.3697479 -6.53781513 1.3697479 -4 -0.375 C-2 -1 -2 -1 0 0 Z " fill="#9AA3DC" transform="translate(56,5)"/>
<path d="M0 0 C2 1.8125 2 1.8125 4 4 C4 4.99 4 5.98 4 7 C2.68 6.34 1.36 5.68 0 5 C0 3.35 0 1.7 0 0 Z " fill="#DC60EA" transform="translate(2,52)"/>
<path d="M0 0 C1.65 0 3.3 0 5 0 C5 0.33 5 0.66 5 1 C3.35 1 1.7 1 0 1 C0 0.67 0 0.34 0 0 Z " fill="#B97ECB" transform="translate(69,127)"/>
<path d="M0 0 C1.65 0 3.3 0 5 0 C5 0.33 5 0.66 5 1 C3.35 1 1.7 1 0 1 C0 0.67 0 0.34 0 0 Z " fill="#B97ECB" transform="translate(54,127)"/>
<path d="M0 0 C0.33 0 0.66 0 1 0 C1 1.65 1 3.3 1 5 C0.67 5 0.34 5 0 5 C0 3.35 0 1.7 0 0 Z " fill="#B97ECB" transform="translate(127,69)"/>
<path d="M0 0 C0.33 0 0.66 0 1 0 C1 1.65 1 3.3 1 5 C0.67 5 0.34 5 0 5 C0 3.35 0 1.7 0 0 Z " fill="#B97ECB" transform="translate(0,69)"/>
<path d="M0 0 C0.33 0 0.66 0 1 0 C1 1.65 1 3.3 1 5 C0.67 5 0.34 5 0 5 C0 3.35 0 1.7 0 0 Z " fill="#B97ECB" transform="translate(127,54)"/>
<path d="M0 0 C0.33 0 0.66 0 1 0 C1 1.65 1 3.3 1 5 C0.67 5 0.34 5 0 5 C0 3.35 0 1.7 0 0 Z " fill="#B97ECB" transform="translate(0,54)"/>
<path d="M0 0 C1.65 0 3.3 0 5 0 C5 0.33 5 0.66 5 1 C3.35 1 1.7 1 0 1 C0 0.67 0 0.34 0 0 Z " fill="#B97ECB" transform="translate(69,0)"/>
<path d="M0 0 C1.65 0 3.3 0 5 0 C5 0.33 5 0.66 5 1 C3.35 1 1.7 1 0 1 C0 0.67 0 0.34 0 0 Z " fill="#B97ECB" transform="translate(54,0)"/>
<path d="M0 0 C3 1 3 1 3 1 Z " fill="#B97ECB" transform="translate(76,126)"/>
<path d="M0 0 C3 1 3 1 3 1 Z " fill="#B97ECB" transform="translate(49,126)"/>
<path d="M0 0 C3 1 3 1 3 1 Z " fill="#B97ECB" transform="translate(80,125)"/>
<path d="M0 0 C3 1 3 1 3 1 Z " fill="#B97ECB" transform="translate(45,125)"/>
<path d="" fill="#B97ECB" transform="translate(0,0)"/>
<path d="" fill="#B97ECB" transform="translate(0,0)"/>
<path d="" fill="#B97ECB" transform="translate(0,0)"/>
<path d="" fill="#B97ECB" transform="translate(0,0)"/>
<path d="" fill="#B97ECB" transform="translate(0,0)"/>
<path d="" fill="#B97ECB" transform="translate(0,0)"/>
<path d="" fill="#B97ECB" transform="translate(0,0)"/>
<path d="" fill="#B97ECB" transform="translate(0,0)"/>
<path d="M0 0 C3 1 3 1 3 1 Z " fill="#B97ECB" transform="translate(80,2)"/>
<path d="M0 0 C3 1 3 1 3 1 Z " fill="#B97ECB" transform="translate(45,2)"/>
<path d="M0 0 C3 1 3 1 3 1 Z " fill="#B97ECB" transform="translate(76,1)"/>
<path d="M0 0 C3 1 3 1 3 1 Z " fill="#B97ECB" transform="translate(49,1)"/>
<path d="M0 0 C2 1 2 1 2 1 Z " fill="#B97ECB" transform="translate(84,124)"/>
<path d="M0 0 C2 1 2 1 2 1 Z " fill="#B97ECB" transform="translate(86,123)"/>
<path d="M0 0 C2 1 2 1 2 1 Z " fill="#B97ECB" transform="translate(40,123)"/>
<path d="M0 0 C2 1 2 1 2 1 Z " fill="#B97ECB" transform="translate(89,122)"/>
<path d="M0 0 C2 1 2 1 2 1 Z " fill="#B97ECB" transform="translate(37,122)"/>
<path d="M0 0 C2 1 2 1 2 1 Z " fill="#B97ECB" transform="translate(91,121)"/>
<path d="M0 0 C2 1 2 1 2 1 Z " fill="#B97ECB" transform="translate(35,121)"/>
<path d="M0 0 C2 1 2 1 2 1 Z " fill="#B97ECB" transform="translate(96,118)"/>
<path d="M0 0 C2 1 2 1 2 1 Z " fill="#B97ECB" transform="translate(30,118)"/>
<path d="M0 0 C2 1 2 1 2 1 Z " fill="#B97ECB" transform="translate(99,116)"/>
<path d="M0 0 C2 1 2 1 2 1 Z " fill="#B97ECB" transform="translate(27,116)"/>
<path d="" fill="#B97ECB" transform="translate(0,0)"/>
<path d="" fill="#B97ECB" transform="translate(0,0)"/>
<path d="" fill="#B97ECB" transform="translate(0,0)"/>
<path d="" fill="#B97ECB" transform="translate(0,0)"/>
<path d="" fill="#B97ECB" transform="translate(0,0)"/>
<path d="" fill="#B97ECB" transform="translate(0,0)"/>
<path d="" fill="#B97ECB" transform="translate(0,0)"/>
<path d="" fill="#B97ECB" transform="translate(0,0)"/>
<path d="" fill="#B97ECB" transform="translate(0,0)"/>
<path d="" fill="#B97ECB" transform="translate(0,0)"/>
<path d="" fill="#B97ECB" transform="translate(0,0)"/>
<path d="" fill="#B97ECB" transform="translate(0,0)"/>
<path d="" fill="#B97ECB" transform="translate(0,0)"/>
<path d="M0 0 C2 1 2 1 2 1 Z " fill="#B97ECB" transform="translate(99,11)"/>
<path d="M0 0 C2 1 2 1 2 1 Z " fill="#B97ECB" transform="translate(27,11)"/>
<path d="M0 0 C2 1 2 1 2 1 Z " fill="#B97ECB" transform="translate(96,9)"/>
<path d="M0 0 C2 1 2 1 2 1 Z " fill="#B97ECB" transform="translate(30,9)"/>
<path d="M0 0 C2 1 2 1 2 1 Z " fill="#B97ECB" transform="translate(91,6)"/>
<path d="M0 0 C2 1 2 1 2 1 Z " fill="#B97ECB" transform="translate(35,6)"/>
<path d="M0 0 C2 1 2 1 2 1 Z " fill="#B97ECB" transform="translate(89,5)"/>
<path d="M0 0 C2 1 2 1 2 1 Z " fill="#B97ECB" transform="translate(37,5)"/>
<path d="M0 0 C2 1 2 1 2 1 Z " fill="#B97ECB" transform="translate(86,4)"/>
<path d="M0 0 C2 1 2 1 2 1 Z " fill="#B97ECB" transform="translate(40,4)"/>
<path d="" fill="#B97ECB" transform="translate(0,0)"/>
<path d="" fill="#B97ECB" transform="translate(0,0)"/>
<path d="" fill="#B97ECB" transform="translate(0,0)"/>
<path d="" fill="#B97ECB" transform="translate(0,0)"/>
<path d="" fill="#B97ECB" transform="translate(0,0)"/>
<path d="" fill="#B97ECB" transform="translate(0,0)"/>
<path d="" fill="#B97ECB" transform="translate(0,0)"/>
<path d="" fill="#B97ECB" transform="translate(0,0)"/>
<path d="" fill="#B97ECB" transform="translate(0,0)"/>
<path d="" fill="#B97ECB" transform="translate(0,0)"/>
<path d="" fill="#B97ECB" transform="translate(0,0)"/>
<path d="" fill="#B97ECB" transform="translate(0,0)"/>
<path d="" fill="#B97ECB" transform="translate(0,0)"/>
<path d="" fill="#B97ECB" transform="translate(0,0)"/>
<path d="" fill="#B97ECB" transform="translate(0,0)"/>
<path d="" fill="#B97ECB" transform="translate(0,0)"/>
<path d="" fill="#B97ECB" transform="translate(0,0)"/>
<path d="" fill="#B97ECB" transform="translate(0,0)"/>
<path d="" fill="#B97ECB" transform="translate(0,0)"/>
<path d="" fill="#B97ECB" transform="translate(0,0)"/>
<path d="" fill="#B97ECB" transform="translate(0,0)"/>
<path d="" fill="#B97ECB" transform="translate(0,0)"/>
<path d="" fill="#B97ECB" transform="translate(0,0)"/>
<path d="" fill="#B97ECB" transform="translate(0,0)"/>
<path d="" fill="#B97ECB" transform="translate(0,0)"/>
<path d="" fill="#B97ECB" transform="translate(0,0)"/>
<path d="" fill="#B97ECB" transform="translate(0,0)"/>
<path d="" fill="#B97ECB" transform="translate(0,0)"/>
<path d="" fill="#B97ECB" transform="translate(0,0)"/>
<path d="" fill="#B97ECB" transform="translate(0,0)"/>
<path d="" fill="#B97ECB" transform="translate(0,0)"/>
<path d="" fill="#B97ECB" transform="translate(0,0)"/>
<path d="" fill="#B97ECB" transform="translate(0,0)"/>
<path d="" fill="#B97ECB" transform="translate(0,0)"/>
<path d="" fill="#B97ECB" transform="translate(0,0)"/>
<path d="" fill="#B97ECB" transform="translate(0,0)"/>
<path d="" fill="#B97ECB" transform="translate(0,0)"/>
<path d="" fill="#B97ECB" transform="translate(0,0)"/>
<path d="" fill="#B97ECB" transform="translate(0,0)"/>
<path d="" fill="#B97ECB" transform="translate(0,0)"/>
<path d="" fill="#B97ECB" transform="translate(0,0)"/>
<path d="" fill="#B97ECB" transform="translate(0,0)"/>
<path d="" fill="#B97ECB" transform="translate(0,0)"/>
<path d="" fill="#B97ECB" transform="translate(0,0)"/>
<path d="" fill="#B97ECB" transform="translate(0,0)"/>
<path d="" fill="#B97ECB" transform="translate(0,0)"/>
<path d="" fill="#B97ECB" transform="translate(0,0)"/>
<path d="" fill="#B97ECB" transform="translate(0,0)"/>
<path d="" fill="#B97ECB" transform="translate(0,0)"/>
<path d="" fill="#B97ECB" transform="translate(0,0)"/>
<path d="" fill="#B97ECB" transform="translate(0,0)"/>
<path d="" fill="#B97ECB" transform="translate(0,0)"/>
<path d="" fill="#B97ECB" transform="translate(0,0)"/>
<path d="" fill="#B97ECB" transform="translate(0,0)"/>
<path d="" fill="#B97ECB" transform="translate(0,0)"/>
<path d="" fill="#B97ECB" transform="translate(0,0)"/>
<path d="" fill="#B97ECB" transform="translate(0,0)"/>
<path d="" fill="#B97ECB" transform="translate(0,0)"/>
<path d="" fill="#B97ECB" transform="translate(0,0)"/>
<path d="" fill="#B97ECB" transform="translate(0,0)"/>
<path d="" fill="#B97ECB" transform="translate(0,0)"/>
<path d="" fill="#B97ECB" transform="translate(0,0)"/>
<path d="" fill="#B97ECB" transform="translate(0,0)"/>
<path d="" fill="#B97ECB" transform="translate(0,0)"/>
<path d="" fill="#B97ECB" transform="translate(0,0)"/>
<path d="" fill="#B97ECB" transform="translate(0,0)"/>
<path d="" fill="#B97ECB" transform="translate(0,0)"/>
<path d="" fill="#B97ECB" transform="translate(0,0)"/>
<path d="" fill="#B97ECB" transform="translate(0,0)"/>
<path d="" fill="#B97ECB" transform="translate(0,0)"/>
<path d="" fill="#B97ECB" transform="translate(0,0)"/>
<path d="" fill="#B97ECB" transform="translate(0,0)"/>
<path d="" fill="#B97ECB" transform="translate(0,0)"/>
<path d="" fill="#B97ECB" transform="translate(0,0)"/>
<path d="" fill="#B97ECB" transform="translate(0,0)"/>
<path d="" fill="#B97ECB" transform="translate(0,0)"/>
<path d="" fill="#B97ECB" transform="translate(0,0)"/>
<path d="" fill="#B97ECB" transform="translate(0,0)"/>
<path d="" fill="#B97ECB" transform="translate(0,0)"/>
<path d="" fill="#B97ECB" transform="translate(0,0)"/>
<path d="" fill="#B97ECB" transform="translate(0,0)"/>
<path d="" fill="#B97ECB" transform="translate(0,0)"/>
<path d="" fill="#B97ECB" transform="translate(0,0)"/>
<path d="" fill="#B97ECB" transform="translate(0,0)"/>
<path d="" fill="#B97ECB" transform="translate(0,0)"/>
<path d="" fill="#B97ECB" transform="translate(0,0)"/>
</svg>
