<svg width="512" height="512" viewBox="0 0 512 512" fill="none" xmlns="http://www.w3.org/2000/svg">
<g clip-path="url(#clip0_5175_269)">
<g clip-path="url(#clip1_5175_269)">
<mask id="mask0_5175_269" style="mask-type:luminance" maskUnits="userSpaceOnUse" x="-2" y="-2" width="516" height="516">
<path d="M513 -1V513H-1V-1H513Z" fill="white" stroke="white" stroke-width="2"/>
</mask>
<g mask="url(#mask0_5175_269)">
<path d="M65.0967 60.5488C65.7047 60.5616 66.3086 60.6539 66.8926 60.8223L458.019 173.43L458.239 173.497C459.337 173.852 460.33 174.474 461.132 175.306C461.987 176.193 462.593 177.29 462.889 178.486C463.185 179.681 463.161 180.936 462.819 182.12V182.121C462.52 183.157 461.986 184.107 461.264 184.9L461.251 184.914L461.238 184.927L460.962 185.21L460.951 185.221L460.94 185.23L167.396 467.59L167.396 467.589C166.508 468.444 165.411 469.05 164.216 469.345C163.02 469.64 161.765 469.616 160.582 469.272V469.271C159.473 468.951 158.459 468.361 157.635 467.557L157.473 467.393C156.619 466.504 156.015 465.407 155.721 464.212L58.1445 69.2441V69.2432C57.8926 68.2209 57.8734 67.1534 58.0898 66.1221V66.1211C58.3065 65.0902 58.7528 64.1217 59.3945 63.2871C60.0369 62.4518 60.8608 61.7708 61.8018 61.2969C62.7426 60.8233 63.7781 60.5677 64.8311 60.5488H65.0967ZM166.431 449.048L442.449 183.547L74.6748 77.6631L166.431 449.048Z" fill="black" stroke="white" stroke-width="2"/>
<path d="M260.598 116.86C262.141 116.892 263.632 117.431 264.838 118.396C265.967 119.298 266.786 120.528 267.19 121.911L267.201 121.922L267.267 122.194L315.999 319.741C316.294 320.936 316.269 322.188 315.927 323.37V323.371C315.585 324.553 314.938 325.625 314.051 326.479C313.164 327.331 312.067 327.935 310.874 328.231H310.873C309.679 328.526 308.426 328.504 307.242 328.162V328.161L111.808 271.835C110.625 271.494 109.552 270.848 108.697 269.962V269.961C107.843 269.074 107.236 267.978 106.939 266.782C106.643 265.587 106.667 264.335 107.009 263.151H107.008C107.348 261.969 107.993 260.894 108.882 260.039L255.587 118.819V118.818C256.253 118.178 257.039 117.676 257.897 117.34L257.899 117.339C258.759 117.004 259.677 116.842 260.598 116.86ZM127.373 261.716L299.47 311.32L256.554 137.365L127.373 261.716Z" fill="black" stroke="white" stroke-width="2"/>
<path d="M187.875 186.753C188.279 186.761 188.679 186.809 189.073 186.886L189.098 186.86L189.669 187.024L286.778 214.896C287.961 215.237 289.035 215.883 289.89 216.77C290.745 217.656 291.352 218.752 291.65 219.947C291.947 221.144 291.924 222.397 291.583 223.58C291.243 224.763 290.598 225.837 289.711 226.692L289.71 226.693L216.823 296.945C215.935 297.8 214.837 298.408 213.64 298.704L213.639 298.703C212.442 299 211.19 298.976 210.006 298.635H210.005C208.821 298.292 207.748 297.643 206.894 296.755L206.893 296.754C206.04 295.865 205.435 294.768 205.14 293.571L180.925 195.448L180.841 195.062C180.671 194.159 180.681 193.228 180.871 192.326H180.87C181.086 191.294 181.533 190.326 182.175 189.491L182.424 189.186C183.025 188.489 183.757 187.917 184.581 187.503V187.502C185.522 187.027 186.558 186.772 187.611 186.753H187.875ZM215.842 278.39L271.22 225.023L197.448 203.851L215.842 278.39Z" fill="black" stroke="white" stroke-width="2"/>
<path d="M211.68 284.958C213.294 284.895 214.881 285.392 216.171 286.363L216.408 286.55C217.574 287.508 218.401 288.82 218.763 290.29L242.983 388.414L243.034 388.639C243.272 389.764 243.231 390.933 242.911 392.041C242.569 393.221 241.923 394.292 241.038 395.145L241.037 395.146C240.151 395.997 239.059 396.602 237.866 396.899H237.865C236.673 397.195 235.423 397.175 234.24 396.837L233.987 396.765L233.985 396.763L137.126 368.964V368.963C135.943 368.623 134.869 367.978 134.012 367.091C133.158 366.205 132.551 365.109 132.254 363.914C131.956 362.719 131.979 361.466 132.319 360.282C132.66 359.099 133.306 358.025 134.192 357.17V357.169L206.775 287.211L207.081 286.916C208.322 285.72 209.96 285.024 211.68 284.958ZM152.685 358.836L226.458 380.009L208.059 305.466L152.685 358.836ZM358.149 144.686C359.584 144.772 360.968 145.295 362.104 146.204C363.311 147.17 364.165 148.506 364.535 150.006L388.735 248.125L388.739 248.141L388.742 248.157L388.824 248.544L388.828 248.56L388.831 248.575C389.02 249.632 388.963 250.719 388.665 251.754V251.755C388.323 252.936 387.677 254.008 386.791 254.862C385.904 255.716 384.808 256.321 383.614 256.617C382.493 256.896 381.324 256.892 380.208 256.611L379.985 256.552L282.891 228.68C281.707 228.34 280.632 227.696 279.775 226.808V226.807C278.92 225.921 278.311 224.824 278.013 223.628C277.716 222.431 277.739 221.177 278.081 219.993C278.422 218.808 279.07 217.734 279.958 216.88L352.852 146.637L353.107 146.403C353.714 145.873 354.409 145.451 355.161 145.156C356.02 144.819 356.938 144.655 357.862 144.674L358.149 144.686ZM298.454 218.553L372.206 239.725L353.823 165.186L298.454 218.553ZM163.66 88.7373C165.198 88.7695 166.69 89.3024 167.901 90.2725C169.106 91.2384 169.959 92.5759 170.327 94.0762H170.328L194.531 192.193L194.535 192.209L194.538 192.225L194.62 192.61L194.624 192.626L194.627 192.643C194.816 193.699 194.759 194.787 194.461 195.821V195.822C194.141 196.93 193.554 197.942 192.75 198.769L192.587 198.931C191.7 199.784 190.605 200.389 189.411 200.686C188.216 200.982 186.964 200.96 185.78 200.619V200.618L88.6892 172.743V172.742C87.5052 172.403 86.4317 171.758 85.5769 170.872C84.7213 169.985 84.1144 168.887 83.8171 167.692C83.52 166.497 83.5432 165.244 83.8835 164.061C84.1836 163.018 84.7211 162.061 85.4509 161.264V161.243L85.7566 160.948L158.644 90.7002C159.31 90.0584 160.096 89.5555 160.957 89.2188C161.817 88.882 162.736 88.7182 163.66 88.7373ZM104.25 162.612L178.001 183.784L159.619 109.246L104.25 162.612Z" fill="black" stroke="white" stroke-width="2"/>
</g>
</g>
</g>
<defs>
<clipPath id="clip0_5175_269">
<rect width="512" height="512" fill="white"/>
</clipPath>
<clipPath id="clip1_5175_269">
<rect width="512" height="512" fill="white"/>
</clipPath>
</defs>
</svg>
