<?xml version="1.0" encoding="UTF-8"?>
<svg version="1.1" xmlns="http://www.w3.org/2000/svg" width="425" height="420">
<path d="M0 0 C1.21586265 -0.00538554 2.4317253 -0.01077108 3.68443227 -0.01631981 C7.02427464 -0.02806604 10.36361186 -0.02656884 13.70343304 -0.019153 C17.31912679 -0.01439274 20.93476879 -0.02695638 24.55044556 -0.03717041 C31.62083284 -0.05430921 38.69113106 -0.05520854 45.76153371 -0.04995751 C51.51340761 -0.0459047 57.26525533 -0.04737251 63.01712799 -0.05270576 C63.83794019 -0.05345419 64.6587524 -0.05420261 65.5044377 -0.05497371 C67.1723136 -0.0565053 68.84018949 -0.05804365 70.50806537 -0.05958868 C86.1268662 -0.07329639 101.74561685 -0.06788862 117.36441651 -0.05640347 C131.62451842 -0.04647702 145.88449046 -0.05940464 160.14457235 -0.08333766 C174.817124 -0.10777571 189.48961528 -0.11732474 204.16218686 -0.11068493 C212.38752853 -0.10720261 220.61277044 -0.10935898 228.83809662 -0.12693596 C235.84149329 -0.14171712 242.84471996 -0.14221688 249.84811351 -0.12486505 C253.41475479 -0.11640021 256.98109321 -0.1140932 260.54771805 -0.1295166 C277.80992568 -0.19885644 294.20608962 -0.22066221 309.78887939 8.20018005 C310.4486377 8.54274841 311.108396 8.88531677 311.78814697 9.23826599 C317.10655165 12.077016 321.79465827 15.44165351 326.35137939 19.38768005 C327.55794189 20.30613708 327.55794189 20.30613708 328.78887939 21.2431488 C331.6047698 23.59974001 333.83608038 26.1128131 336.16387939 28.95018005 C336.95407471 29.90021912 337.74427002 30.85025818 338.55841064 31.8290863 C340.35137939 34.38768005 340.35137939 34.38768005 340.35137939 37.38768005 C341.01137939 37.38768005 341.67137939 37.38768005 342.35137939 37.38768005 C342.77290283 38.30291443 343.19442627 39.2181488 343.62872314 40.16111755 C344.17657471 41.34963318 344.72442627 42.5381488 345.28887939 43.76268005 C345.83415283 44.94603943 346.37942627 46.1293988 346.94122314 47.34861755 C347.72491962 49.03758116 348.5186996 50.72232046 349.35137939 52.38768005 C349.45169809 54.12027859 349.48783108 55.85673846 349.49398041 57.59222794 C349.50028835 58.70226283 349.50659629 59.81229773 349.51309538 60.95597005 C349.51588837 62.80056219 349.51588837 62.80056219 349.51873779 64.68241882 C349.52453118 65.98098651 349.53032456 67.27955419 349.53629351 68.61747241 C349.55217532 72.23442295 349.56167003 75.85136668 349.57005835 79.46834135 C349.57805325 82.5679594 349.58974594 85.66755902 349.60147315 88.76716486 C349.64342587 99.87502098 349.67059977 110.98289878 349.69512939 122.09080505 C349.69710429 122.96771747 349.69907919 123.8446299 349.70111394 124.74811542 C349.7402887 142.16374093 349.77399204 159.57937359 349.79619598 176.99502945 C349.80116527 180.8261084 349.80620958 184.65718725 349.81134033 188.48826599 C349.81324634 189.91655606 349.81324634 189.91655606 349.81519085 191.37370047 C349.83652666 206.78042168 349.88549464 222.18692884 349.94558448 237.59354249 C350.00678657 253.41610482 350.04139595 269.23855697 350.05066919 285.06123614 C350.05657151 293.94294885 350.07423982 302.82429961 350.12205505 311.70589447 C350.1627649 319.27470858 350.17949258 326.84310168 350.16540223 334.41202036 C350.15895802 338.27022145 350.1636044 342.12752699 350.19927597 345.98558807 C350.4583008 375.54245237 350.4583008 375.54245237 342.35137939 386.38768005 C341.81158195 387.18215168 341.27178452 387.97662331 340.71562958 388.79516983 C339.35335073 390.75983701 337.89997596 392.56719249 336.35137939 394.38768005 C335.77259033 395.08635193 335.19380127 395.7850238 334.59747314 396.50486755 C331.46138486 400.20314877 328.37823012 403.62641098 324.35137939 406.38768005 C323.69137939 406.38768005 323.03137939 406.38768005 322.35137939 406.38768005 C322.35137939 407.04768005 322.35137939 407.70768005 322.35137939 408.38768005 C311.93503961 417.53642294 298.94765535 421.29950259 285.41030884 421.14285278 C284.0662042 421.14906864 282.72210962 421.15789923 281.3780371 421.16907817 C277.72699178 421.19195181 274.07692105 421.17800286 270.4258976 421.15736902 C266.47217895 421.14162062 262.51859807 421.16070377 258.56489563 421.1751709 C250.83695405 421.19791001 243.10937586 421.18857468 235.38144182 421.16767003 C229.09800391 421.15134012 222.81466472 421.14719768 216.53120804 421.15163612 C215.18626173 421.15258214 215.18626173 421.15258214 213.8141448 421.15354726 C211.99229002 421.1548934 210.17043528 421.15627298 208.34858055 421.15768562 C191.29485692 421.16960154 174.24133183 421.14560899 157.18765338 421.10866753 C142.57256213 421.07776714 127.95769915 421.07541119 113.34259033 421.09446716 C96.34394213 421.11660561 79.34542169 421.12270042 62.34676707 421.10214454 C60.53248447 421.09998174 58.71820185 421.09783264 56.90391922 421.0956974 C55.56514302 421.09409786 55.56514302 421.09409786 54.19932085 421.09246599 C47.92649065 421.08601148 41.65372649 421.09074581 35.38090134 421.09972191 C27.73217177 421.110284 20.08370941 421.10267186 12.43502901 421.07226612 C8.53669578 421.05719312 4.63878339 421.04990096 0.74043846 421.06445694 C-2.8349563 421.077566 -6.40952112 421.06721145 -9.98482077 421.03889821 C-11.87609009 421.02974102 -13.76743012 421.04482719 -15.65865195 421.06105918 C-26.299695 420.93441385 -35.04504467 417.46018194 -43.89862061 411.70018005 C-45.26760498 410.82812927 -45.26760498 410.82812927 -46.66424561 409.9384613 C-47.31908936 409.42670349 -47.97393311 408.91494568 -48.64862061 408.38768005 C-48.64862061 407.72768005 -48.64862061 407.06768005 -48.64862061 406.38768005 C-49.73143311 406.04736755 -49.73143311 406.04736755 -50.83612061 405.70018005 C-54.21294478 404.12432877 -56.206291 402.17891389 -58.64862061 399.38768005 C-58.64862061 398.72768005 -58.64862061 398.06768005 -58.64862061 397.38768005 C-59.30862061 397.38768005 -59.96862061 397.38768005 -60.64862061 397.38768005 C-62.60174561 395.18455505 -62.60174561 395.18455505 -64.89862061 392.13768005 C-65.64627686 391.1631488 -66.39393311 390.18861755 -67.16424561 389.18455505 C-73.73203197 379.54369062 -76.54003834 371.49536798 -76.41725159 359.81446838 C-76.4273171 358.49918935 -76.43738261 357.18391031 -76.44775313 355.82877433 C-76.47452825 352.21130347 -76.46437665 348.59477229 -76.44762766 344.97727656 C-76.43604605 341.06299852 -76.45913508 337.14889549 -76.47758484 333.23466492 C-76.50803448 325.57932679 -76.50609646 317.92433018 -76.49213401 310.26895703 C-76.48129255 304.04316839 -76.48185924 297.81747763 -76.49045372 291.59168625 C-76.49166184 290.70368793 -76.49286996 289.81568961 -76.49411469 288.90078225 C-76.49660549 287.09648687 -76.49911648 285.29219151 -76.50164744 283.48789619 C-76.52390158 266.58912257 -76.50868113 249.69053968 -76.48106112 232.79178439 C-76.45835034 218.31369262 -76.47001748 203.83595445 -76.50628662 189.3578949 C-76.54846227 172.52036981 -76.56750562 155.68306382 -76.55126208 138.84548652 C-76.54960254 137.04742618 -76.54797919 135.2493658 -76.54639244 133.45130539 C-76.5456075 132.56677171 -76.54482256 131.68223802 -76.54401383 130.77090029 C-76.54013365 124.55860344 -76.55280011 118.34646871 -76.57212257 112.13420486 C-76.5953242 104.5545854 -76.5935093 96.97545795 -76.56020943 89.3958682 C-76.54388021 85.53359864 -76.53844317 81.67218046 -76.56380844 77.80994034 C-76.74419817 48.07200181 -76.74419817 48.07200181 -68.64862061 37.38768005 C-67.93377408 36.41800859 -67.21892756 35.44833714 -66.48241901 34.44928169 C-64.61898187 32.01238793 -62.66170256 29.701222 -60.64862061 27.38768005 C-59.83557696 26.32559601 -59.02299912 25.26315502 -58.21112061 24.20018005 C-53.48383735 19.01169843 -48.29294947 14.77402352 -41.64862061 12.38768005 C-41.64862061 11.72768005 -41.64862061 11.06768005 -41.64862061 10.38768005 C-39.06963791 9.27236171 -36.48607198 8.17054916 -33.89862061 7.07518005 C-33.18834717 6.76644958 -32.47807373 6.45771912 -31.74627686 6.13963318 C-21.29022001 1.74438805 -11.31575816 -0.0610687 0 0 Z " fill="#0B111D" transform="translate(75.64862060546875,-0.3876800537109375)"/>
<path d="M0 0 C1.1294957 0.00142502 2.25899139 0.00285004 3.42271423 0.00431824 C4.7006636 0.00124161 5.97861298 -0.00183502 7.29528809 -0.00500488 C8.69575683 0.00189234 10.09622379 0.00915927 11.49668884 0.01676941 C12.92633014 0.0179611 14.35597224 0.01841439 15.78561401 0.01815796 C18.78253578 0.01972307 21.77933813 0.02801556 24.77622986 0.04142761 C28.62563061 0.05843287 32.47490023 0.06224154 36.32433414 0.06148243 C39.27619691 0.06175379 42.22803078 0.06722917 45.17988396 0.07448387 C46.59971841 0.0776749 48.01955615 0.07963895 49.439394 0.08037758 C51.41952307 0.08253567 53.39964003 0.09206485 55.37974548 0.10197449 C57.07279564 0.10769218 57.07279564 0.10769218 58.80004883 0.11352539 C61.33653259 0.24723816 61.33653259 0.24723816 62.33653259 1.24723816 C62.42444234 3.53875233 62.44347298 5.8329634 62.43418884 8.12614441 C62.43169128 9.38241638 62.42919373 10.63868835 62.42662048 11.93302917 C62.41751648 13.54234314 62.40841248 15.1516571 62.39903259 16.80973816 C62.37840759 21.90411316 62.35778259 26.99848816 62.33653259 32.24723816 C76.52653259 32.24723816 90.71653259 32.24723816 105.33653259 32.24723816 C105.29693437 22.09010724 105.29693437 22.09010724 105.2464447 11.93302917 C105.24269836 10.04862122 105.24269836 10.04862122 105.23887634 8.12614441 C105.23363953 6.83265076 105.22840271 5.5391571 105.2230072 4.20646667 C105.33653259 1.24723816 105.33653259 1.24723816 106.33653259 0.24723816 C108.31996459 0.14267996 110.30714501 0.10868211 112.2933197 0.10197449 C113.56811691 0.09559464 114.84291412 0.08921478 116.15634155 0.0826416 C117.55885277 0.08111304 118.96136449 0.07999902 120.36387634 0.07926941 C121.79255202 0.07605851 123.22122737 0.07269457 124.64990234 0.06918335 C127.64856224 0.06318577 130.64719329 0.06134409 133.64585876 0.06193542 C137.49411209 0.06203707 141.342181 0.04838519 145.19039059 0.03116322 C148.14229182 0.0200611 151.09414822 0.01801566 154.04606819 0.01854515 C155.46508482 0.01736231 156.88410251 0.01292362 158.30309868 0.00521278 C160.28549208 -0.00455038 162.26793925 -0.00045437 164.25035095 0.00431824 C165.9445945 0.00218071 165.9445945 0.00218071 167.67306519 0 C170.33653259 0.24723816 170.33653259 0.24723816 172.33653259 2.24723816 C172.56358337 5.22819519 172.56358337 5.22819519 172.53184509 9.00505066 C172.5290152 9.66810211 172.5261853 10.33115356 172.52326965 11.01429749 C172.51206694 13.13379399 172.4869631 15.2528692 172.46153259 17.37223816 C172.45150287 18.80842998 172.442377 20.24462841 172.43418884 21.68083191 C172.4121276 25.20310444 172.37759753 28.72513019 172.33653259 32.24723816 C173.75131897 32.21581726 173.75131897 32.21581726 175.19468689 32.1837616 C178.70780784 32.11542388 182.22021844 32.06536069 185.73374939 32.0275116 C187.25176669 32.00744613 188.76970718 31.98018681 190.28746033 31.94548035 C192.47458381 31.89673423 194.66068211 31.87422011 196.84825134 31.85661316 C198.16269226 31.83566589 199.47713318 31.81471863 200.83140564 31.7931366 C204.91172759 32.3217567 206.46304885 33.36562345 209.33653259 36.24723816 C211.62870586 39.68549806 211.59096457 40.9492695 211.60395813 44.99645996 C211.61675308 46.79447556 211.61675308 46.79447556 211.62980652 48.6288147 C211.62844696 50.60422997 211.62844696 50.60422997 211.62705994 52.61955261 C211.63304369 54.01911275 211.63984889 55.41866957 211.64741516 56.81822205 C211.66510014 60.62206257 211.66977164 64.42581313 211.67104673 68.22969079 C211.67294539 71.40553495 211.68030271 74.58135813 211.68739092 77.75719422 C211.70368272 85.2515263 211.70855924 92.74581033 211.70713806 100.24015808 C211.70593707 107.96836456 211.72702847 115.69629156 211.75862539 123.42442733 C211.78479005 130.06063344 211.79550525 136.69674831 211.79422724 143.33300561 C211.79371757 147.29594915 211.79940316 151.2586445 211.82058334 155.22153664 C211.8399686 158.95053555 211.84008866 162.67904964 211.82555008 166.4080658 C211.82246668 168.42509308 211.83913728 170.44212042 211.85643005 172.45907593 C211.77820825 183.71484564 211.77820825 183.71484564 207.33653259 188.24723816 C204.50289742 189.94722244 202.41714428 190.49840504 199.12854958 190.50730038 C198.29175403 190.51436597 197.45495849 190.52143156 196.5928055 190.52871126 C195.22151667 190.52508863 195.22151667 190.52508863 193.82252502 190.52139282 C192.84737171 190.5266295 191.87221839 190.53186618 190.86751497 190.53726155 C187.59103305 190.55229601 184.31470683 190.55296746 181.03819275 190.55363464 C178.69268529 190.56125375 176.34718034 190.56968082 174.00167847 190.57885742 C167.62361191 190.60083255 161.2455933 190.60960528 154.86749315 190.61468387 C150.88470799 190.61832358 146.90193547 190.6245616 142.91915512 190.63168526 C131.89066949 190.65124904 120.86219284 190.66765489 109.83368874 190.67056179 C109.1280795 190.67074936 108.42247027 190.67093693 107.69547894 190.67113018 C106.26506162 190.67149643 104.8346443 190.67186013 103.40422697 190.6722213 C102.69417298 190.67240411 101.98411899 190.67258692 101.25254822 190.67277527 C100.54162716 190.67295582 99.83070609 190.67313637 99.09824197 190.67332239 C87.57588239 190.67686489 76.05370961 190.70389292 64.53141482 190.74127316 C52.70001936 190.77934892 40.86871661 190.79871921 29.03725851 190.7990213 C22.39491543 190.79960599 15.75276896 190.80861819 9.11047745 190.83701897 C2.86416417 190.86312892 -3.38170707 190.86544402 -9.62804985 190.84936333 C-11.92182438 190.84754328 -14.21562391 190.85428938 -16.5093441 190.87018204 C-19.6385876 190.8905437 -22.76627006 190.88014814 -25.89549255 190.86196899 C-27.26008923 190.88176895 -27.26008923 190.88176895 -28.65225351 190.9019689 C-32.96335422 190.844683 -35.7888834 190.59420988 -39.21146584 187.83381748 C-42.69621986 184.15780324 -42.79066723 182.4936995 -42.81063843 177.53561401 C-42.81779373 176.32003815 -42.82494904 175.10446228 -42.83232117 173.85205078 C-42.83516155 172.49769618 -42.83787326 171.1433413 -42.84046936 169.78898621 C-42.84673312 168.36824883 -42.85337985 166.9475131 -42.86038208 165.52677917 C-42.87779952 161.6609884 -42.88834581 157.79521001 -42.89658761 153.92938972 C-42.90173609 151.51485272 -42.90781188 149.10031957 -42.91409874 146.68578529 C-42.93315272 139.13326066 -42.94738353 131.58074581 -42.95571071 124.02820176 C-42.96548559 115.30630919 -42.99181061 106.58467024 -43.0322116 97.86286706 C-43.06235769 91.12394865 -43.07717813 84.385103 -43.08049172 77.64611846 C-43.0828439 73.62002017 -43.09182577 69.59419277 -43.1169529 65.56816673 C-43.14021261 61.78011194 -43.14447561 57.99250677 -43.13419151 54.20439911 C-43.13369553 52.81484546 -43.14003463 51.42526984 -43.15374756 50.03578377 C-43.17143481 48.13720912 -43.1619853 46.23843972 -43.1512146 44.33981323 C-43.15479713 42.74670334 -43.15479713 42.74670334 -43.15845203 41.12140942 C-42.53913261 37.52527733 -41.16537327 35.85330262 -38.66346741 33.24723816 C-35.70536265 31.76818578 -32.70875191 32.12532913 -29.46815491 32.14958191 C-28.76071136 32.15099686 -28.05326782 32.1524118 -27.3243866 32.15386963 C-25.06237072 32.15947215 -22.80045342 32.17202498 -20.53846741 32.18473816 C-19.00591675 32.18975284 -17.47336455 32.1943158 -15.94081116 32.19841003 C-12.18165853 32.20944239 -8.42257969 32.22670864 -4.66346741 32.24723816 C-4.67917786 30.89976501 -4.67917786 30.89976501 -4.69520569 29.52507019 C-4.72926211 26.19659369 -4.75435359 22.86830194 -4.77333069 19.53971863 C-4.78339704 18.09828269 -4.79705121 16.65686721 -4.81434631 15.21549988 C-4.83856752 13.14529882 -4.84994382 11.0753674 -4.85877991 9.00505066 C-4.87449036 7.1355072 -4.87449036 7.1355072 -4.89051819 5.22819519 C-4.59472671 1.34473934 -3.92178243 0.3640421 0 0 Z " fill="#FCFDFD" transform="translate(128.66346740722656,101.75276184082031)"/>
<path d="M0 0 C1.21586265 -0.00538554 2.4317253 -0.01077108 3.68443227 -0.01631981 C7.02427464 -0.02806604 10.36361186 -0.02656884 13.70343304 -0.019153 C17.31912679 -0.01439274 20.93476879 -0.02695638 24.55044556 -0.03717041 C31.62083284 -0.05430921 38.69113106 -0.05520854 45.76153371 -0.04995751 C51.51340761 -0.0459047 57.26525533 -0.04737251 63.01712799 -0.05270576 C63.83794019 -0.05345419 64.6587524 -0.05420261 65.5044377 -0.05497371 C67.1723136 -0.0565053 68.84018949 -0.05804365 70.50806537 -0.05958868 C86.1268662 -0.07329639 101.74561685 -0.06788862 117.36441651 -0.05640347 C131.62451842 -0.04647702 145.88449046 -0.05940464 160.14457235 -0.08333766 C174.817124 -0.10777571 189.48961528 -0.11732474 204.16218686 -0.11068493 C212.38752853 -0.10720261 220.61277044 -0.10935898 228.83809662 -0.12693596 C235.84149329 -0.14171712 242.84471996 -0.14221688 249.84811351 -0.12486505 C253.41475479 -0.11640021 256.98109321 -0.1140932 260.54771805 -0.1295166 C277.80992568 -0.19885644 294.20608962 -0.22066221 309.78887939 8.20018005 C310.4486377 8.54274841 311.108396 8.88531677 311.78814697 9.23826599 C317.10655165 12.077016 321.79465827 15.44165351 326.35137939 19.38768005 C327.55794189 20.30613708 327.55794189 20.30613708 328.78887939 21.2431488 C331.6047698 23.59974001 333.83608038 26.1128131 336.16387939 28.95018005 C336.95407471 29.90021912 337.74427002 30.85025818 338.55841064 31.8290863 C340.35137939 34.38768005 340.35137939 34.38768005 340.35137939 37.38768005 C341.01137939 37.38768005 341.67137939 37.38768005 342.35137939 37.38768005 C342.77290283 38.30291443 343.19442627 39.2181488 343.62872314 40.16111755 C344.17657471 41.34963318 344.72442627 42.5381488 345.28887939 43.76268005 C345.83415283 44.94603943 346.37942627 46.1293988 346.94122314 47.34861755 C347.72491962 49.03758116 348.5186996 50.72232046 349.35137939 52.38768005 C349.45169809 54.12027859 349.48783108 55.85673846 349.49398041 57.59222794 C349.50028835 58.70226283 349.50659629 59.81229773 349.51309538 60.95597005 C349.51588837 62.80056219 349.51588837 62.80056219 349.51873779 64.68241882 C349.52453118 65.98098651 349.53032456 67.27955419 349.53629351 68.61747241 C349.55217532 72.23442295 349.56167003 75.85136668 349.57005835 79.46834135 C349.57805325 82.5679594 349.58974594 85.66755902 349.60147315 88.76716486 C349.64342587 99.87502098 349.67059977 110.98289878 349.69512939 122.09080505 C349.69710429 122.96771747 349.69907919 123.8446299 349.70111394 124.74811542 C349.7402887 142.16374093 349.77399204 159.57937359 349.79619598 176.99502945 C349.80116527 180.8261084 349.80620958 184.65718725 349.81134033 188.48826599 C349.81324634 189.91655606 349.81324634 189.91655606 349.81519085 191.37370047 C349.83652666 206.78042168 349.88549464 222.18692884 349.94558448 237.59354249 C350.00678657 253.41610482 350.04139595 269.23855697 350.05066919 285.06123614 C350.05657151 293.94294885 350.07423982 302.82429961 350.12205505 311.70589447 C350.1627649 319.27470858 350.17949258 326.84310168 350.16540223 334.41202036 C350.15895802 338.27022145 350.1636044 342.12752699 350.19927597 345.98558807 C350.4583008 375.54245237 350.4583008 375.54245237 342.35137939 386.38768005 C341.81158195 387.18215168 341.27178452 387.97662331 340.71562958 388.79516983 C339.35335073 390.75983701 337.89997596 392.56719249 336.35137939 394.38768005 C335.77259033 395.08635193 335.19380127 395.7850238 334.59747314 396.50486755 C331.46138486 400.20314877 328.37823012 403.62641098 324.35137939 406.38768005 C323.69137939 406.38768005 323.03137939 406.38768005 322.35137939 406.38768005 C322.35137939 407.04768005 322.35137939 407.70768005 322.35137939 408.38768005 C309.43208434 419.73478576 295.68651119 421.2751017 279.35137939 420.38768005 C279.68137939 419.06768005 280.01137939 417.74768005 280.35137939 416.38768005 C283.20481817 415.73848499 286.05905694 415.09323827 288.91387939 414.45018005 C289.71374268 414.26777771 290.51360596 414.08537537 291.33770752 413.89744568 C295.99771886 412.85132068 300.61337774 411.99185476 305.35137939 411.38768005 C305.35137939 410.72768005 305.35137939 410.06768005 305.35137939 409.38768005 C307.00209335 408.36156057 308.67107946 407.36459862 310.35137939 406.38768005 C311.15575439 405.55236755 311.15575439 405.55236755 311.97637939 404.70018005 C313.35137939 403.38768005 313.35137939 403.38768005 316.35137939 403.38768005 C317.15575439 402.58330505 317.96012939 401.77893005 318.78887939 400.95018005 C321.1939727 398.54508675 322.08319102 397.7508121 325.35137939 397.38768005 C325.35137939 396.39768005 325.35137939 395.40768005 325.35137939 394.38768005 C327.94096142 391.44815451 329.60504453 389.63645834 333.35137939 388.38768005 C333.35137939 387.06768005 333.35137939 385.74768005 333.35137939 384.38768005 C334.73028564 382.8681488 334.73028564 382.8681488 336.35137939 381.38768005 C337.41231998 379.62659608 337.41231998 379.62659608 338.28887939 377.70018005 C339.30600644 375.56030123 340.31982455 373.44512319 341.46075439 371.3681488 C343.36169313 367.87620699 344.56692528 364.99228673 344.97637939 361.01268005 C345.35137939 357.38768005 345.35137939 357.38768005 347.35137939 355.38768005 C347.65438364 353.21088279 347.65438364 353.21088279 347.60306168 350.65495491 C347.60827717 349.65022168 347.61349267 348.64548846 347.61886621 347.61030877 C347.61440476 346.49826982 347.60994332 345.38623087 347.60534668 344.24049377 C347.60846666 343.06554411 347.61158664 341.89059444 347.61480117 340.68004024 C347.62142048 337.4085779 347.61900798 334.13726275 347.61282873 330.86580396 C347.60831951 327.34152246 347.61528043 323.81726148 347.62078857 320.29298401 C347.6297012 313.38434982 347.62775211 306.47575899 347.62196329 299.56712307 C347.61745341 293.95316565 347.61683098 288.3392204 347.61901093 282.72526169 C347.61947062 281.52844444 347.61947062 281.52844444 347.61993961 280.30744907 C347.62057904 278.68673905 347.62122747 277.06602905 347.62188479 275.44531904 C347.62759375 260.23229284 347.62102172 245.0192907 347.61028406 229.80626844 C347.60135146 216.74631675 347.60289709 203.68640063 347.61212158 190.62644958 C347.62282015 175.47235525 347.62704076 160.31828204 347.62089705 145.16418445 C347.62025994 143.54869962 347.6196312 141.93321479 347.61901093 140.31772995 C347.61870237 139.52281902 347.61839382 138.72790808 347.61807592 137.90890894 C347.61634748 132.30123266 347.61926736 126.69356975 347.62397003 121.08589554 C347.62957442 114.25249971 347.62807188 107.41914985 347.61740854 100.5857593 C347.61214533 97.09771516 347.61010604 93.6097477 347.61670685 90.1217041 C347.62214296 86.34400325 347.61535145 82.56652044 347.60534668 78.78883362 C347.60980812 77.68125611 347.61426957 76.57367861 347.61886621 75.43253815 C347.61365071 74.42258943 347.60843522 73.41264071 347.60306168 72.37208748 C347.60273697 71.49981486 347.60241227 70.62754225 347.60207772 69.72883713 C347.32999692 67.18799893 346.57237235 65.60862389 345.35137939 63.38768005 C345.10375198 61.78910752 344.89932208 60.18354702 344.72637939 58.57518005 C342.17886792 43.59099841 331.18622562 29.37849347 319.35137939 20.38768005 C318.36137939 20.05768005 317.37137939 19.72768005 316.35137939 19.38768005 C316.35137939 18.72768005 316.35137939 18.06768005 316.35137939 17.38768005 C315.01938072 16.71835072 313.68556688 16.05263568 312.35137939 15.38768005 C310.74262939 14.58523865 310.74262939 14.58523865 309.10137939 13.7665863 C307.85178455 13.16028183 306.60177261 12.55483632 305.35137939 11.95018005 C304.75454346 11.65047302 304.15770752 11.35076599 303.54278564 11.04197693 C293.64387161 6.29831854 283.63529063 4.94102884 272.75849915 5.00672913 C271.5486869 5.00204915 270.33887466 4.99736918 269.09240144 4.99254739 C265.76956292 4.98272431 262.44724063 4.98616059 259.12443459 4.99550605 C255.52720907 5.00233844 251.93002627 4.99179466 248.33280945 4.98356628 C241.29951774 4.97027073 234.26632243 4.97308809 227.23302705 4.98180421 C221.51306978 4.9885974 215.7931394 4.98949042 210.07317924 4.98623276 C209.25705159 4.98577306 208.44092394 4.98531336 207.60006515 4.98483973 C205.94176606 4.98388049 204.28346698 4.98290785 202.6251679 4.98192196 C187.09801788 4.97338016 171.57092112 4.98318288 156.04377984 4.99932306 C142.74174535 5.01272261 129.43978942 5.01039878 116.13775635 4.99656677 C100.66523794 4.98048518 85.19276614 4.97420667 69.72024053 4.98340356 C68.0679588 4.98435914 66.41567706 4.98530225 64.76339531 4.98623276 C63.95058778 4.98669558 63.13778025 4.98715841 62.30034219 4.98763526 C56.59257673 4.99021761 50.88484101 4.98587045 45.17708015 4.9787941 C38.2135094 4.97035006 31.25003999 4.97271983 24.28648073 4.98863633 C20.7384883 4.99648059 17.1906644 4.99967703 13.64267349 4.98968887 C9.78543633 4.978995 5.92847066 4.99182725 2.07124329 5.00672913 C0.41274081 4.99669088 0.41274081 4.99669088 -1.27926677 4.98644984 C-12.04817344 5.0667188 -22.34502432 7.05778084 -31.89862061 12.13768005 C-32.57046387 12.48258484 -33.24230713 12.82748962 -33.93450928 13.18284607 C-38.66354291 15.68007264 -42.89038095 18.53921796 -46.94940186 22.0400238 C-48.64862061 23.38768005 -48.64862061 23.38768005 -51.64862061 24.38768005 C-52.35951953 25.69796435 -53.02129527 27.0353912 -53.64862061 28.38768005 C-54.63327119 29.62567575 -55.65523085 30.83485708 -56.71112061 32.01268005 C-58.31240544 33.80580585 -59.57190219 35.23424322 -60.64862061 37.38768005 C-61.30862061 37.38768005 -61.96862061 37.38768005 -62.64862061 37.38768005 C-62.92834717 38.1043988 -63.20807373 38.82111755 -63.49627686 39.55955505 C-64.61206518 42.29796437 -65.83004272 44.96117765 -67.08612061 47.63768005 C-70.93665431 56.1088542 -73.18823622 64.1958489 -74.64862061 73.38768005 C-74.97862061 73.38768005 -75.30862061 73.38768005 -75.64862061 73.38768005 C-76.86153904 53.76239313 -73.79971304 42.5016221 -60.64862061 27.38768005 C-59.83557696 26.32559601 -59.02299912 25.26315502 -58.21112061 24.20018005 C-53.48383735 19.01169843 -48.29294947 14.77402352 -41.64862061 12.38768005 C-41.64862061 11.72768005 -41.64862061 11.06768005 -41.64862061 10.38768005 C-39.06963791 9.27236171 -36.48607198 8.17054916 -33.89862061 7.07518005 C-33.18834717 6.76644958 -32.47807373 6.45771912 -31.74627686 6.13963318 C-21.29022001 1.74438805 -11.31575816 -0.0610687 0 0 Z " fill="#000001" transform="translate(75.64862060546875,-0.3876800537109375)"/>
<path d="M0 0 C0.83265381 0.00523682 1.66530762 0.01047363 2.52319336 0.01586914 C3.42231445 0.0190918 4.32143555 0.02231445 5.24780273 0.02563477 C6.66609375 0.03820312 6.66609375 0.03820312 8.11303711 0.05102539 C9.06243164 0.05553711 10.01182617 0.06004883 10.98999023 0.06469727 C13.34356776 0.07652429 15.69702188 0.09300514 18.05053711 0.11352539 C16.55305412 4.94622585 14.61840842 9.42960312 12.48022461 14.00024414 C11.95018578 15.14379112 11.95018578 15.14379112 11.40943909 16.31044006 C10.25094738 18.80861639 9.08819493 21.30478565 7.92553711 23.80102539 C6.28739941 27.3303158 4.65146325 30.86062557 3.01538086 34.39086914 C2.60028763 35.28573029 2.1851944 36.18059143 1.75752258 37.10256958 C-2.02858827 45.26966274 -5.77017998 53.45671219 -9.50262451 61.6484375 C-15.21607312 74.1871372 -21.00039565 86.6842242 -26.94946289 99.11352539 C-33.54946289 99.11352539 -40.14946289 99.11352539 -46.94946289 99.11352539 C-46.05065815 94.61950167 -44.70033689 91.09379373 -42.73852539 87.03149414 C-42.41488007 86.34957001 -42.09123474 85.66764587 -41.75778198 84.96505737 C-41.06308276 83.50267529 -40.36591174 82.04146532 -39.66650391 80.58132935 C-38.18672385 77.49138284 -36.71949025 74.39553906 -35.25177002 71.29985046 C-34.5138572 69.7435184 -33.77537253 68.18745733 -33.03631592 66.63166809 C-30.12587904 60.50160044 -27.26668268 54.34953546 -24.44946289 48.17602539 C-24.03599609 47.27126465 -23.6225293 46.36650391 -23.1965332 45.43432617 C-21.4566881 41.62245998 -19.72081158 37.80879294 -17.98547363 33.99487305 C-15.8012759 29.19460737 -13.61523976 24.39518587 -11.42724609 19.59664917 C-10.33843449 17.20669323 -9.2523025 14.81553157 -8.16625977 12.42431641 C-7.49776797 10.95737981 -6.82915402 9.49049888 -6.16040039 8.02368164 C-5.85053192 7.33951172 -5.54066345 6.6553418 -5.22140503 5.95043945 C-2.57084966 0.14971135 -2.57084966 0.14971135 0 0 Z " fill="#0E141E" transform="translate(227.949462890625,162.886474609375)"/>
<path d="M0 0 C5.07878521 1.5284725 8.33393869 4.6510228 12.1875 8.125 C13.53127908 9.31394034 14.87633092 10.50144374 16.22265625 11.6875 C16.87250488 12.26113281 17.52235352 12.83476562 18.19189453 13.42578125 C21.1943668 16.03986999 24.31916848 18.49010244 27.4453125 20.953125 C30.67548013 23.54121038 33.84047505 26.20142231 37 28.875 C37.56477051 29.35211426 38.12954102 29.82922852 38.71142578 30.32080078 C44.93873116 35.60612889 44.93873116 35.60612889 45.4375 38.8125 C44.60770792 44.85812798 38.06674806 48.78063825 33.5625 52.625 C32.95631836 53.14425049 32.35013672 53.66350098 31.72558594 54.19848633 C26.920384 58.28439488 21.98912437 62.18652962 16.99731445 66.04077148 C12.4033919 69.61251523 8.1211019 73.41862718 3.890625 77.41796875 C2 79 2 79 0 79 C-1.2278953 76.42441474 -2.43223642 73.84179456 -3.625 71.25 C-3.975625 70.52039063 -4.32625 69.79078125 -4.6875 69.0390625 C-5.00976562 68.33007812 -5.33203125 67.62109375 -5.6640625 66.890625 C-5.96779785 66.24125977 -6.2715332 65.59189453 -6.58447266 64.92285156 C-7 63 -7 63 -6.296875 60.94580078 C-4.90621478 58.85928685 -3.54353298 57.53735509 -1.5859375 55.9765625 C-0.56693359 55.15671875 -0.56693359 55.15671875 0.47265625 54.3203125 C1.18292969 53.76085937 1.89320313 53.20140625 2.625 52.625 C3.31207031 52.07328125 3.99914062 51.5215625 4.70703125 50.953125 C8.87831107 47.61923156 13.11969071 44.40398072 17.44677734 41.27490234 C19.13828998 40.06310346 19.13828998 40.06310346 20 38 C19.42040527 37.73356689 18.84081055 37.46713379 18.24365234 37.19262695 C15.93298514 35.96437785 14.1097459 34.59145491 12.1015625 32.91796875 C11.37453125 32.31533203 10.6475 31.71269531 9.8984375 31.09179688 C9.14820313 30.46337891 8.39796875 29.83496094 7.625 29.1875 C6.8825 28.57068359 6.14 27.95386719 5.375 27.31835938 C3.24686124 25.54929703 1.12295674 23.77527521 -1 22 C-2.17948617 21.01668553 -3.35914787 20.03358155 -4.5390625 19.05078125 C-5.35117188 18.37402344 -6.16328125 17.69726562 -7 17 C-6.37954537 12.76677156 -4.89476441 9.47709705 -2.9375 5.6875 C-2.38964844 4.61886719 -1.84179688 3.55023438 -1.27734375 2.44921875 C-0.64505859 1.23685547 -0.64505859 1.23685547 0 0 Z " fill="#0F141E" transform="translate(261,175)"/>
<path d="M0 0 C3.14689302 1.57344651 3.82107702 4.7086642 5.125 7.8125 C5.40214844 8.44220703 5.67929688 9.07191406 5.96484375 9.72070312 C7.40584889 13.10316101 8 15.25939027 8 19 C6.19921875 20.82421875 6.19921875 20.82421875 3.6875 22.6875 C2.78128906 23.37585938 1.87507813 24.06421875 0.94140625 24.7734375 C-0.02925781 25.50820312 -0.99992187 26.24296875 -2 27 C-3.96511641 28.59585012 -5.92360168 30.19990435 -7.875 31.8125 C-10.86994458 34.27918176 -13.87674606 36.69750814 -17 39 C-15.45346886 43.38354521 -12.0174956 45.57379734 -8.4375 48.25 C-7.17317132 49.22486868 -5.91015329 50.20143947 -4.6484375 51.1796875 C-4.02936523 51.65760742 -3.41029297 52.13552734 -2.77246094 52.62792969 C-0.3398978 54.51098821 2.06984052 56.41066422 4.4375 58.375 C5.15808594 58.96023437 5.87867188 59.54546875 6.62109375 60.1484375 C8 62 8 62 7.9140625 64.30078125 C6.79943981 67.59225252 5.42794779 70.67304615 3.9375 73.8125 C3.38964844 74.97394531 2.84179688 76.13539063 2.27734375 77.33203125 C1.64505859 78.65267578 1.64505859 78.65267578 1 80 C-4.47456773 76.02825478 -9.65381741 71.78401566 -14.78881836 67.38818359 C-18.86133941 63.91979889 -23.02577859 60.59367673 -27.25 57.3125 C-28.97336575 55.96122728 -30.69445448 54.60715818 -32.41357422 53.25048828 C-33.88804525 52.08824749 -35.36764631 50.93252298 -36.84765625 49.77734375 C-40.37227181 46.87833349 -42.6618318 44.68886115 -44.6875 40.5625 C-43.51537782 34.488776 -38.69185965 31.69134388 -34 28 C-32.18688509 26.50074332 -30.37437988 25.00074899 -28.5625 23.5 C-26.7096065 21.9984276 -24.85544024 20.49842435 -23 19 C-15.28947257 12.71857895 -7.63021353 6.37848566 0 0 Z " fill="#0E141E" transform="translate(163,174)"/>
<path d="M0 0 C0.33 0 0.66 0 1 0 C1.00173625 0.55829129 1.0034725 1.11658257 1.00526136 1.69179177 C1.10838023 34.8104473 1.21651191 67.92908224 1.33111694 101.04769994 C1.34488585 105.02789359 1.35861305 109.00808737 1.37231445 112.98828125 C1.37504276 113.78063705 1.37777106 114.57299286 1.38058204 115.38935944 C1.42460835 128.20436677 1.46525874 141.01938267 1.50465261 153.83440498 C1.5451761 166.99234041 1.58934815 180.15025998 1.63687855 193.30817199 C1.66607249 201.42157131 1.69245019 209.53496961 1.71517897 217.64838967 C1.73293858 223.87891833 1.75578446 230.10941909 1.78049088 236.33992386 C1.78981243 238.88916856 1.79750502 241.43841983 1.80341911 243.98767471 C1.81176408 247.47800148 1.82606309 250.96825686 1.84178162 254.45855713 C1.84275972 255.45859528 1.84373783 256.45863343 1.84474558 257.48897576 C1.89401072 266.04241521 2.1858115 274.61798514 4 283 C3.505 281.515 3.505 281.515 3 280 C2.34 280 1.68 280 1 280 C0.67 280.99 0.34 281.98 0 283 C0 189.61 0 96.22 0 0 Z " fill="#000008" transform="translate(0,78)"/>
<path d="M0 0 C1 2 1 2 0.25 5.5625 C-0.1625 6.696875 -0.575 7.83125 -1 9 C-1.99 9.33 -2.98 9.66 -4 10 C-3.52449439 8.51965236 -3.04448784 7.04074979 -2.5625 5.5625 C-2.29566406 4.73878906 -2.02882813 3.91507812 -1.75390625 3.06640625 C-1 1 -1 1 0 0 Z M-7 11 C-6.01 11.495 -6.01 11.495 -5 12 C-5.99 12.495 -5.99 12.495 -7 13 C-7 12.34 -7 11.68 -7 11 Z " fill="#03090B" transform="translate(416,373)"/>
<path d="M0 0 C0.66 0.33 1.32 0.66 2 1 C0.80100302 4.0831351 -0.47700477 7.06279492 -2 10 C-2.66 10 -3.32 10 -4 10 C-2.8905928 6.51329166 -1.73662334 3.22515763 0 0 Z " fill="#1F242C" transform="translate(209,199)"/>
</svg>
